<?xml version="1.0" encoding="UTF-8"?>
<svg xmlns="http://www.w3.org/2000/svg" viewBox="0 0 256 300" width="512" height="512" role="img" aria-label="tratamentos_esteticos">
  <path d="M 127.0 245.0 L 126.0 245.0 L 121.0 250.0 L 121.0 251.0 L 122.0 252.0 L 127.0 252.0 L 128.0 251.0 L 128.0 246.0 Z M 43.0 181.0 L 38.0 181.0 L 37.0 182.0 L 37.0 183.0 L 35.0 185.0 L 34.0 185.0 L 33.0 186.0 L 33.0 187.0 L 31.0 189.0 L 30.0 189.0 L 29.0 190.0 L 29.0 195.0 L 30.0 196.0 L 31.0 196.0 L 33.0 198.0 L 33.0 199.0 L 34.0 200.0 L 35.0 200.0 L 37.0 202.0 L 37.0 207.0 L 38.0 208.0 L 39.0 208.0 L 41.0 206.0 L 41.0 205.0 L 42.0 204.0 L 43.0 204.0 L 44.0 203.0 L 44.0 202.0 L 46.0 200.0 L 47.0 200.0 L 48.0 199.0 L 48.0 198.0 L 50.0 196.0 L 51.0 196.0 L 52.0 195.0 L 52.0 190.0 L 51.0 189.0 L 50.0 189.0 L 48.0 187.0 L 48.0 186.0 L 47.0 185.0 L 46.0 185.0 L 44.0 183.0 L 44.0 182.0 Z M 98.0 17.0 L 74.0 29.0 L 45.0 62.0 L 41.0 87.0 L 37.0 90.0 L 37.0 131.0 L 41.0 135.0 L 33.0 142.0 L 33.0 155.0 L 50.0 176.0 L 61.0 182.0 L 65.0 195.0 L 73.0 202.0 L 69.0 205.0 L 62.0 197.0 L 53.0 211.0 L 63.0 220.0 L 75.0 208.0 L 97.0 226.0 L 89.0 251.0 L 73.0 262.0 L 74.0 268.0 L 87.0 264.0 L 96.0 255.0 L 106.0 232.0 L 115.0 232.0 L 122.0 240.0 L 134.0 232.0 L 143.0 232.0 L 153.0 255.0 L 171.0 268.0 L 176.0 262.0 L 160.0 251.0 L 152.0 226.0 L 176.0 207.0 L 188.0 182.0 L 199.0 176.0 L 216.0 155.0 L 216.0 146.0 L 208.0 135.0 L 212.0 131.0 L 208.0 74.0 L 196.0 50.0 L 175.0 29.0 L 139.0 13.0 Z M 208.0 148.0 L 209.0 149.0 L 209.0 152.0 L 208.0 153.0 L 206.0 153.0 L 205.0 154.0 L 205.0 159.0 L 203.0 161.0 L 202.0 161.0 L 201.0 162.0 L 201.0 163.0 L 199.0 165.0 L 198.0 165.0 L 198.0 166.0 L 195.0 169.0 L 194.0 169.0 L 192.0 167.0 L 192.0 154.0 L 194.0 152.0 L 203.0 152.0 L 204.0 151.0 L 204.0 149.0 L 205.0 148.0 Z M 41.0 148.0 L 44.0 148.0 L 45.0 149.0 L 45.0 151.0 L 46.0 152.0 L 55.0 152.0 L 57.0 154.0 L 57.0 167.0 L 55.0 169.0 L 54.0 169.0 L 51.0 166.0 L 51.0 165.0 L 50.0 165.0 L 48.0 163.0 L 48.0 162.0 L 47.0 161.0 L 46.0 161.0 L 44.0 159.0 L 44.0 154.0 L 43.0 153.0 L 41.0 153.0 L 40.0 152.0 L 40.0 149.0 Z M 198.0 136.0 L 199.0 136.0 L 205.0 142.0 L 205.0 143.0 L 203.0 145.0 L 198.0 145.0 L 196.0 143.0 L 196.0 138.0 Z M 51.0 136.0 L 53.0 138.0 L 53.0 143.0 L 51.0 145.0 L 46.0 145.0 L 44.0 143.0 L 44.0 142.0 L 50.0 136.0 Z M 114.0 60.0 L 139.0 60.0 L 150.0 72.0 L 163.0 76.0 L 185.0 102.0 L 185.0 119.0 L 189.0 121.0 L 185.0 125.0 L 184.0 121.0 L 175.0 117.0 L 142.0 117.0 L 137.0 122.0 L 184.0 124.0 L 189.0 130.0 L 189.0 139.0 L 185.0 142.0 L 185.0 171.0 L 181.0 174.0 L 181.0 183.0 L 177.0 186.0 L 173.0 199.0 L 159.0 213.0 L 154.0 213.0 L 139.0 225.0 L 130.0 225.0 L 127.0 217.0 L 122.0 217.0 L 119.0 225.0 L 110.0 225.0 L 95.0 213.0 L 90.0 213.0 L 76.0 199.0 L 76.0 194.0 L 68.0 183.0 L 68.0 174.0 L 64.0 171.0 L 64.0 142.0 L 60.0 139.0 L 60.0 126.0 L 112.0 123.0 L 107.0 117.0 L 74.0 117.0 L 66.0 121.0 L 64.0 102.0 L 79.0 96.0 L 100.0 75.0 L 100.0 70.0 Z M 156.0 195.0 L 156.0 182.0 L 154.0 181.0 L 147.0 173.0 L 145.0 174.0 L 145.0 183.0 L 143.0 185.0 L 130.0 185.0 L 128.0 183.0 L 128.0 178.0 L 127.0 177.0 L 122.0 177.0 L 121.0 178.0 L 121.0 183.0 L 119.0 185.0 L 102.0 185.0 L 101.0 186.0 L 106.0 192.0 L 119.0 192.0 L 121.0 194.0 L 121.0 195.0 L 117.0 198.0 L 117.0 203.0 L 121.0 206.0 L 121.0 211.0 L 122.0 212.0 L 127.0 212.0 L 128.0 211.0 L 128.0 206.0 L 132.0 203.0 L 132.0 198.0 L 128.0 195.0 L 130.0 192.0 L 143.0 192.0 L 146.0 188.0 L 148.0 188.0 L 149.0 189.0 L 149.0 199.0 L 150.0 200.0 Z M 113.0 166.0 L 113.0 167.0 L 115.0 169.0 L 116.0 169.0 L 117.0 170.0 L 117.0 171.0 L 118.0 172.0 L 131.0 172.0 L 132.0 171.0 L 132.0 170.0 L 133.0 169.0 L 134.0 169.0 L 136.0 167.0 L 136.0 166.0 L 135.0 165.0 L 130.0 165.0 L 128.0 163.0 L 128.0 162.0 L 127.0 162.0 L 126.0 161.0 L 123.0 161.0 L 122.0 162.0 L 121.0 162.0 L 121.0 163.0 L 119.0 165.0 L 114.0 165.0 Z M 122.0 149.0 L 121.0 150.0 L 121.0 155.0 L 122.0 156.0 L 127.0 156.0 L 128.0 155.0 L 128.0 150.0 L 127.0 149.0 Z M 150.0 133.0 L 149.0 135.0 L 145.0 138.0 L 145.0 139.0 L 149.0 142.0 L 149.0 147.0 L 147.0 149.0 L 142.0 149.0 L 141.0 151.0 L 143.0 153.0 L 144.0 153.0 L 145.0 155.0 L 147.0 156.0 L 150.0 160.0 L 155.0 160.0 L 158.0 164.0 L 171.0 164.0 L 172.0 163.0 L 172.0 158.0 L 171.0 157.0 L 158.0 157.0 L 156.0 155.0 L 156.0 154.0 L 159.0 151.0 L 160.0 151.0 L 160.0 150.0 L 162.0 148.0 L 164.0 147.0 L 164.0 141.0 L 165.0 140.0 L 167.0 140.0 L 169.0 142.0 L 169.0 143.0 L 171.0 144.0 L 176.0 139.0 L 176.0 138.0 L 175.0 137.0 L 170.0 137.0 L 167.0 133.0 Z M 122.0 133.0 L 121.0 134.0 L 121.0 139.0 L 122.0 140.0 L 127.0 140.0 L 128.0 139.0 L 128.0 134.0 L 127.0 133.0 Z M 73.0 138.0 L 73.0 139.0 L 78.0 144.0 L 79.0 144.0 L 80.0 143.0 L 80.0 142.0 L 82.0 140.0 L 84.0 140.0 L 85.0 141.0 L 85.0 147.0 L 86.0 148.0 L 87.0 148.0 L 89.0 150.0 L 89.0 151.0 L 90.0 152.0 L 95.0 152.0 L 96.0 151.0 L 96.0 150.0 L 98.0 148.0 L 99.0 148.0 L 100.0 147.0 L 100.0 142.0 L 101.0 141.0 L 102.0 141.0 L 104.0 139.0 L 104.0 138.0 L 102.0 136.0 L 101.0 136.0 L 100.0 135.0 L 100.0 134.0 L 99.0 133.0 L 82.0 133.0 L 81.0 134.0 L 81.0 135.0 L 79.0 137.0 L 74.0 137.0 Z M 122.0 121.0 L 121.0 122.0 L 121.0 127.0 L 122.0 128.0 L 127.0 128.0 L 128.0 127.0 L 128.0 122.0 L 127.0 121.0 Z M 122.0 105.0 L 121.0 106.0 L 121.0 111.0 L 122.0 112.0 L 127.0 112.0 L 128.0 111.0 L 128.0 106.0 L 127.0 105.0 Z M 121.0 78.0 L 121.0 83.0 L 122.0 83.0 L 125.0 86.0 L 125.0 87.0 L 122.0 90.0 L 121.0 90.0 L 121.0 99.0 L 122.0 100.0 L 126.0 100.0 L 127.0 99.0 L 128.0 99.0 L 128.0 98.0 L 130.0 96.0 L 147.0 96.0 L 148.0 95.0 L 148.0 94.0 L 149.0 93.0 L 150.0 93.0 L 152.0 91.0 L 152.0 90.0 L 151.0 89.0 L 130.0 89.0 L 128.0 87.0 L 128.0 78.0 L 127.0 77.0 L 122.0 77.0 Z M 122.0 65.0 L 121.0 66.0 L 121.0 71.0 L 122.0 72.0 L 127.0 72.0 L 128.0 71.0 L 128.0 66.0 L 127.0 65.0 Z M 52.0 66.0 L 78.0 36.0 L 83.0 36.0 L 102.0 24.0 L 115.0 24.0 L 118.0 20.0 L 122.0 28.0 L 127.0 28.0 L 130.0 20.0 L 134.0 24.0 L 147.0 24.0 L 150.0 28.0 L 171.0 36.0 L 197.0 66.0 L 197.0 71.0 L 201.0 74.0 L 201.0 94.0 L 205.0 98.0 L 205.0 119.0 L 198.0 129.0 L 196.0 114.0 L 192.0 111.0 L 192.0 102.0 L 196.0 99.0 L 195.0 93.0 L 186.0 93.0 L 167.0 69.0 L 154.0 65.0 L 147.0 57.0 L 142.0 57.0 L 131.0 49.0 L 123.0 49.0 L 119.0 53.0 L 110.0 53.0 L 107.0 57.0 L 102.0 57.0 L 97.0 62.0 L 97.0 67.0 L 75.0 89.0 L 70.0 89.0 L 67.0 93.0 L 54.0 93.0 L 53.0 99.0 L 57.0 102.0 L 57.0 111.0 L 53.0 114.0 L 53.0 127.0 L 50.0 129.0 L 44.0 119.0 L 44.0 98.0 L 48.0 94.0 L 48.0 78.0 L 52.0 75.0 Z M 122.0 37.0 L 121.0 38.0 L 121.0 43.0 L 122.0 44.0 L 127.0 44.0 L 128.0 43.0 L 128.0 38.0 L 127.0 37.0 Z" fill="#111111" fill-rule="evenodd"/>
</svg>
