<?xml version="1.0" encoding="UTF-8"?>
<svg xmlns="http://www.w3.org/2000/svg" viewBox="0 0 316 320" width="512" height="512" role="img" aria-label="sistema_imunologico">
  <path d="M 86.0 153.0 L 81.0 158.0 L 81.0 170.0 L 93.0 179.0 L 78.0 185.0 L 75.0 169.0 L 71.0 165.0 L 58.0 165.0 L 49.0 174.0 L 49.0 187.0 L 55.0 192.0 L 67.0 192.0 L 69.0 199.0 L 62.0 209.0 L 56.0 198.0 L 42.0 197.0 L 37.0 202.0 L 37.0 223.0 L 42.0 228.0 L 54.0 228.0 L 63.0 216.0 L 69.0 231.0 L 53.0 234.0 L 49.0 238.0 L 49.0 251.0 L 58.0 260.0 L 71.0 260.0 L 76.0 254.0 L 76.0 242.0 L 83.0 240.0 L 93.0 247.0 L 82.0 253.0 L 81.0 267.0 L 86.0 272.0 L 107.0 272.0 L 112.0 267.0 L 112.0 255.0 L 100.0 246.0 L 115.0 240.0 L 118.0 256.0 L 122.0 260.0 L 135.0 260.0 L 144.0 251.0 L 144.0 238.0 L 138.0 233.0 L 126.0 233.0 L 124.0 226.0 L 131.0 216.0 L 137.0 227.0 L 151.0 228.0 L 156.0 223.0 L 156.0 202.0 L 151.0 197.0 L 139.0 197.0 L 130.0 209.0 L 124.0 194.0 L 140.0 191.0 L 144.0 187.0 L 144.0 174.0 L 135.0 165.0 L 122.0 165.0 L 117.0 171.0 L 117.0 183.0 L 110.0 185.0 L 100.0 178.0 L 111.0 172.0 L 112.0 158.0 L 107.0 153.0 Z M 94.0 256.0 L 99.0 256.0 L 101.0 258.0 L 101.0 263.0 L 99.0 265.0 L 94.0 265.0 L 92.0 263.0 L 92.0 258.0 Z M 136.0 240.0 L 137.0 241.0 L 137.0 244.0 L 136.0 245.0 L 135.0 245.0 L 129.0 251.0 L 129.0 252.0 L 128.0 253.0 L 125.0 253.0 L 124.0 252.0 L 124.0 249.0 L 125.0 248.0 L 126.0 248.0 L 132.0 242.0 L 132.0 241.0 L 133.0 240.0 Z M 56.0 241.0 L 57.0 240.0 L 60.0 240.0 L 61.0 241.0 L 61.0 242.0 L 67.0 248.0 L 68.0 248.0 L 69.0 249.0 L 69.0 252.0 L 68.0 253.0 L 65.0 253.0 L 64.0 252.0 L 64.0 251.0 L 58.0 245.0 L 57.0 245.0 L 56.0 244.0 Z M 142.0 208.0 L 147.0 208.0 L 149.0 210.0 L 149.0 215.0 L 147.0 217.0 L 142.0 217.0 L 140.0 215.0 L 140.0 210.0 Z M 46.0 208.0 L 51.0 208.0 L 53.0 210.0 L 53.0 215.0 L 51.0 217.0 L 46.0 217.0 L 44.0 215.0 L 44.0 210.0 Z M 94.0 188.0 L 99.0 188.0 L 102.0 192.0 L 111.0 192.0 L 113.0 194.0 L 113.0 195.0 L 117.0 198.0 L 117.0 207.0 L 121.0 210.0 L 121.0 215.0 L 117.0 218.0 L 117.0 227.0 L 115.0 229.0 L 114.0 229.0 L 111.0 233.0 L 106.0 233.0 L 103.0 237.0 L 90.0 237.0 L 87.0 233.0 L 82.0 233.0 L 80.0 231.0 L 80.0 230.0 L 76.0 227.0 L 76.0 222.0 L 72.0 219.0 L 72.0 206.0 L 76.0 203.0 L 76.0 198.0 L 78.0 196.0 L 79.0 196.0 L 82.0 192.0 L 91.0 192.0 Z M 124.0 173.0 L 125.0 172.0 L 128.0 172.0 L 129.0 173.0 L 129.0 174.0 L 135.0 180.0 L 136.0 180.0 L 137.0 181.0 L 137.0 184.0 L 136.0 185.0 L 133.0 185.0 L 132.0 184.0 L 132.0 183.0 L 126.0 177.0 L 125.0 177.0 L 124.0 176.0 Z M 68.0 172.0 L 69.0 173.0 L 69.0 176.0 L 68.0 177.0 L 67.0 177.0 L 61.0 183.0 L 61.0 184.0 L 60.0 185.0 L 57.0 185.0 L 56.0 184.0 L 56.0 181.0 L 57.0 180.0 L 58.0 180.0 L 64.0 174.0 L 64.0 173.0 L 65.0 172.0 Z M 94.0 160.0 L 99.0 160.0 L 101.0 162.0 L 101.0 167.0 L 99.0 169.0 L 94.0 169.0 L 92.0 167.0 L 92.0 162.0 Z M 174.0 57.0 L 139.0 77.0 L 86.0 81.0 L 85.0 143.0 L 92.0 139.0 L 94.0 92.0 L 135.0 88.0 L 166.0 72.0 L 173.0 74.0 L 173.0 259.0 L 166.0 261.0 L 151.0 249.0 L 145.0 259.0 L 178.0 276.0 L 208.0 259.0 L 239.0 228.0 L 260.0 190.0 L 268.0 162.0 L 268.0 82.0 L 214.0 77.0 Z M 182.0 72.0 L 187.0 72.0 L 190.0 76.0 L 195.0 76.0 L 206.0 84.0 L 219.0 84.0 L 222.0 88.0 L 243.0 88.0 L 246.0 92.0 L 259.0 92.0 L 261.0 94.0 L 261.0 147.0 L 257.0 150.0 L 257.0 171.0 L 253.0 174.0 L 253.0 183.0 L 249.0 186.0 L 249.0 191.0 L 245.0 194.0 L 245.0 199.0 L 241.0 202.0 L 237.0 215.0 L 225.0 226.0 L 225.0 231.0 L 211.0 245.0 L 206.0 245.0 L 195.0 257.0 L 190.0 257.0 L 187.0 261.0 L 180.0 259.0 L 180.0 74.0 Z M 70.0 61.0 L 70.0 152.0 L 76.0 151.0 L 78.0 72.0 L 130.0 72.0 L 179.0 48.0 L 223.0 72.0 L 277.0 74.0 L 273.0 171.0 L 245.0 231.0 L 211.0 265.0 L 183.0 281.0 L 170.0 281.0 L 139.0 261.0 L 133.0 266.0 L 170.0 292.0 L 199.0 284.0 L 248.0 243.0 L 280.0 183.0 L 284.0 62.0 L 234.0 65.0 L 179.0 37.0 L 119.0 65.0 Z" fill="#111111" fill-rule="evenodd"/>
</svg>
