<?xml version="1.0" encoding="UTF-8"?>
<svg xmlns="http://www.w3.org/2000/svg" viewBox="0 0 79 80" width="79" height="80" role="img" aria-label="ventosaterapia">
  <path d="M 41 62 L 39 64 L 39 69 L 44 72 L 49 68 L 49 65 L 46 62 Z M 42 63 L 45 63 L 48 66 L 45 70 L 42 70 L 40 67 L 40 65 Z M 26 62 L 24 64 L 24 68 L 26 71 L 29 72 L 34 68 L 34 65 L 33 63 L 31 62 Z M 27 63 L 30 63 L 33 66 L 30 70 L 27 70 L 25 67 L 25 65 Z M 7 51 L 6 51 L 7 63 L 5 68 L 5 74 L 8 65 Z M 46 48 L 41 48 L 39 50 L 39 55 L 42 58 L 43 57 L 40 54 L 40 51 L 42 49 L 44 49 L 48 52 L 46 56 L 49 54 L 49 51 Z M 26 48 L 24 50 L 24 55 L 27 58 L 30 58 L 34 54 L 34 51 L 31 48 Z M 27 49 L 30 49 L 33 52 L 29 57 L 28 57 L 25 53 L 25 51 Z M 56 36 L 55 36 L 54 38 L 55 40 L 55 46 L 54 47 L 54 54 L 52 60 L 53 74 L 54 73 L 53 62 L 55 59 L 56 60 L 57 74 L 58 73 L 58 63 L 56 57 Z M 18 36 L 17 36 L 17 56 L 15 62 L 15 74 L 16 73 L 16 66 L 18 59 L 20 63 L 19 71 L 18 72 L 19 74 L 21 67 L 21 61 L 20 60 L 19 48 L 18 47 Z M 42 34 L 39 36 L 39 41 L 40 43 L 45 44 L 49 40 L 49 38 L 47 35 Z M 42 36 L 46 36 L 48 39 L 44 43 L 40 40 L 40 38 Z M 27 34 L 25 35 L 24 37 L 24 41 L 27 44 L 30 44 L 33 42 L 34 38 L 28 43 L 25 40 L 25 38 L 27 36 L 30 36 L 31 35 L 30 34 Z M 19 23 L 17 26 L 17 29 L 20 33 L 23 33 L 27 29 L 27 26 L 24 23 Z M 21 24 L 23 24 L 26 27 L 22 32 L 20 31 L 18 28 Z M 62 21 L 67 27 L 67 34 L 64 39 L 64 41 L 66 42 L 65 66 L 67 70 L 67 74 L 68 73 L 68 69 L 66 64 L 66 59 L 67 58 L 68 26 L 65 22 Z M 34 19 L 31 23 L 32 27 L 34 29 L 38 29 L 41 26 L 41 22 L 38 19 Z M 33 22 L 34 21 L 38 21 L 40 23 L 40 25 L 37 28 L 35 28 L 33 26 Z M 46 30 L 49 33 L 52 33 L 56 28 L 56 22 L 58 20 L 56 20 L 53 18 L 53 15 L 52 14 L 53 12 L 57 12 L 60 17 L 67 17 L 68 16 L 61 16 L 58 11 L 51 11 L 47 17 L 45 15 L 45 12 L 43 11 L 44 16 L 46 18 Z M 49 24 L 51 24 L 54 26 L 54 29 L 50 32 L 47 29 L 47 26 Z M 47 21 L 49 19 L 52 19 L 54 22 L 53 23 L 48 23 Z M 30 11 L 28 11 L 28 14 L 25 17 L 12 20 L 6 23 L 5 25 L 6 47 L 7 46 L 7 42 L 9 40 L 6 35 L 6 26 L 10 22 L 25 19 L 29 15 Z" fill="#111111" fill-rule="evenodd"/>
</svg>
