<?xml version="1.0" encoding="UTF-8"?>
<svg xmlns="http://www.w3.org/2000/svg" viewBox="0 0 292 296" width="512" height="512" role="img" aria-label="alergias">
  <path d="M 213.0 250.0 L 213.0 263.0 L 214.0 264.0 L 219.0 264.0 L 221.0 266.0 L 221.0 267.0 L 222.0 268.0 L 227.0 268.0 L 228.0 267.0 L 228.0 266.0 L 230.0 264.0 L 235.0 264.0 L 236.0 263.0 L 236.0 250.0 L 235.0 249.0 L 234.0 249.0 L 232.0 247.0 L 232.0 246.0 L 231.0 245.0 L 218.0 245.0 L 217.0 246.0 L 217.0 247.0 L 215.0 249.0 L 214.0 249.0 Z M 220.0 254.0 L 222.0 252.0 L 223.0 252.0 L 224.0 251.0 L 225.0 251.0 L 226.0 252.0 L 227.0 252.0 L 229.0 254.0 L 229.0 255.0 L 227.0 257.0 L 226.0 257.0 L 225.0 258.0 L 224.0 258.0 L 223.0 257.0 L 222.0 257.0 L 220.0 255.0 Z M 169.0 246.0 L 169.0 251.0 L 170.0 252.0 L 183.0 252.0 L 184.0 251.0 L 184.0 246.0 L 183.0 245.0 L 170.0 245.0 Z M 45.0 246.0 L 45.0 247.0 L 47.0 249.0 L 48.0 249.0 L 49.0 250.0 L 49.0 251.0 L 50.0 252.0 L 59.0 252.0 L 60.0 251.0 L 60.0 246.0 L 59.0 245.0 L 46.0 245.0 Z M 94.0 241.0 L 93.0 242.0 L 93.0 243.0 L 91.0 245.0 L 90.0 245.0 L 89.0 246.0 L 89.0 255.0 L 90.0 256.0 L 91.0 256.0 L 93.0 258.0 L 93.0 259.0 L 94.0 260.0 L 95.0 260.0 L 97.0 262.0 L 97.0 263.0 L 98.0 263.0 L 99.0 264.0 L 106.0 264.0 L 107.0 263.0 L 108.0 263.0 L 108.0 262.0 L 110.0 260.0 L 111.0 260.0 L 112.0 259.0 L 112.0 242.0 L 111.0 241.0 Z M 100.0 249.0 L 101.0 248.0 L 104.0 248.0 L 105.0 249.0 L 105.0 252.0 L 104.0 253.0 L 101.0 253.0 L 100.0 252.0 Z M 125.0 226.0 L 125.0 227.0 L 127.0 229.0 L 128.0 229.0 L 129.0 230.0 L 129.0 231.0 L 130.0 232.0 L 135.0 232.0 L 136.0 231.0 L 136.0 230.0 L 137.0 229.0 L 138.0 229.0 L 140.0 227.0 L 140.0 226.0 L 139.0 225.0 L 126.0 225.0 Z M 182.0 209.0 L 181.0 210.0 L 181.0 211.0 L 179.0 213.0 L 178.0 213.0 L 177.0 214.0 L 177.0 227.0 L 178.0 228.0 L 179.0 228.0 L 181.0 230.0 L 181.0 231.0 L 182.0 232.0 L 195.0 232.0 L 196.0 231.0 L 196.0 226.0 L 198.0 224.0 L 199.0 224.0 L 200.0 223.0 L 200.0 214.0 L 199.0 213.0 L 198.0 213.0 L 196.0 211.0 L 196.0 210.0 L 195.0 209.0 Z M 186.0 216.0 L 187.0 216.0 L 189.0 218.0 L 189.0 219.0 L 190.0 220.0 L 190.0 221.0 L 189.0 222.0 L 189.0 223.0 L 187.0 225.0 L 186.0 225.0 L 184.0 223.0 L 184.0 222.0 L 183.0 221.0 L 183.0 220.0 L 184.0 219.0 L 184.0 218.0 Z M 21.0 194.0 L 21.0 199.0 L 22.0 200.0 L 55.0 200.0 L 55.0 199.0 L 56.0 198.0 L 56.0 194.0 L 55.0 193.0 L 22.0 193.0 Z M 78.0 173.0 L 77.0 175.0 L 73.0 178.0 L 73.0 183.0 L 71.0 185.0 L 70.0 185.0 L 67.0 189.0 L 65.0 190.0 L 65.0 195.0 L 63.0 197.0 L 62.0 197.0 L 61.0 199.0 L 61.0 219.0 L 63.0 220.0 L 65.0 222.0 L 65.0 223.0 L 69.0 226.0 L 70.0 228.0 L 79.0 228.0 L 82.0 232.0 L 87.0 232.0 L 90.0 228.0 L 95.0 228.0 L 96.0 226.0 L 98.0 224.0 L 99.0 224.0 L 100.0 222.0 L 102.0 220.0 L 103.0 220.0 L 106.0 216.0 L 108.0 215.0 L 108.0 202.0 L 104.0 199.0 L 104.0 194.0 L 100.0 191.0 L 100.0 186.0 L 98.0 185.0 L 96.0 183.0 L 96.0 182.0 L 94.0 181.0 L 92.0 179.0 L 92.0 178.0 L 88.0 175.0 L 87.0 173.0 Z M 82.0 184.0 L 87.0 184.0 L 89.0 186.0 L 89.0 191.0 L 90.0 192.0 L 91.0 192.0 L 93.0 194.0 L 93.0 195.0 L 94.0 196.0 L 95.0 196.0 L 97.0 198.0 L 97.0 215.0 L 95.0 217.0 L 94.0 217.0 L 93.0 218.0 L 93.0 219.0 L 91.0 221.0 L 78.0 221.0 L 76.0 219.0 L 76.0 218.0 L 75.0 217.0 L 74.0 217.0 L 72.0 215.0 L 72.0 214.0 L 71.0 213.0 L 70.0 213.0 L 68.0 211.0 L 68.0 202.0 L 70.0 200.0 L 71.0 200.0 L 72.0 199.0 L 72.0 194.0 L 74.0 192.0 L 75.0 192.0 L 76.0 191.0 L 76.0 190.0 L 78.0 188.0 L 79.0 188.0 L 80.0 187.0 L 80.0 186.0 Z M 276.0 198.0 L 271.0 193.0 L 250.0 193.0 L 248.0 178.0 L 243.0 173.0 L 226.0 169.0 L 221.0 174.0 L 222.0 180.0 L 235.0 180.0 L 241.0 186.0 L 241.0 191.0 L 233.0 194.0 L 234.0 200.0 L 269.0 202.0 L 269.0 211.0 L 257.0 214.0 L 257.0 223.0 L 269.0 226.0 L 269.0 235.0 L 257.0 238.0 L 258.0 244.0 L 269.0 246.0 L 269.0 255.0 L 257.0 258.0 L 257.0 263.0 L 269.0 270.0 L 267.0 281.0 L 166.0 281.0 L 151.0 269.0 L 22.0 269.0 L 21.0 275.0 L 147.0 276.0 L 162.0 288.0 L 271.0 288.0 L 276.0 283.0 Z M 212.0 174.0 L 207.0 169.0 L 203.0 173.0 L 194.0 173.0 L 191.0 177.0 L 186.0 177.0 L 175.0 189.0 L 170.0 189.0 L 167.0 193.0 L 114.0 193.0 L 113.0 194.0 L 113.0 199.0 L 114.0 200.0 L 175.0 200.0 L 186.0 188.0 L 191.0 188.0 L 198.0 180.0 L 211.0 180.0 L 212.0 179.0 Z M 256.0 58.0 L 243.0 49.0 L 226.0 49.0 L 207.0 69.0 L 202.0 69.0 L 195.0 61.0 L 182.0 61.0 L 173.0 70.0 L 173.0 83.0 L 166.0 85.0 L 161.0 95.0 L 167.0 96.0 L 179.0 88.0 L 189.0 106.0 L 171.0 117.0 L 130.0 117.0 L 130.0 112.0 L 152.0 103.0 L 151.0 97.0 L 142.0 97.0 L 118.0 109.0 L 99.0 129.0 L 86.0 133.0 L 73.0 146.0 L 73.0 151.0 L 82.0 160.0 L 91.0 160.0 L 102.0 152.0 L 139.0 144.0 L 154.0 132.0 L 186.0 116.0 L 211.0 120.0 L 220.0 111.0 L 216.0 98.0 L 226.0 92.0 L 243.0 92.0 L 244.0 82.0 L 210.0 89.0 L 208.0 78.0 L 226.0 60.0 L 239.0 56.0 L 249.0 66.0 L 249.0 79.0 L 255.0 80.0 Z M 141.0 130.0 L 141.0 131.0 L 139.0 133.0 L 135.0 133.0 L 134.0 134.0 L 133.0 134.0 L 133.0 135.0 L 131.0 137.0 L 122.0 137.0 L 119.0 141.0 L 106.0 141.0 L 103.0 145.0 L 99.0 145.0 L 98.0 146.0 L 97.0 146.0 L 97.0 147.0 L 95.0 149.0 L 91.0 149.0 L 87.0 153.0 L 86.0 153.0 L 84.0 151.0 L 84.0 146.0 L 86.0 144.0 L 90.0 144.0 L 91.0 143.0 L 92.0 143.0 L 92.0 142.0 L 94.0 140.0 L 98.0 140.0 L 99.0 139.0 L 100.0 139.0 L 100.0 138.0 L 102.0 136.0 L 103.0 136.0 L 104.0 135.0 L 104.0 134.0 L 106.0 132.0 L 107.0 132.0 L 110.0 128.0 L 139.0 128.0 Z M 186.0 68.0 L 187.0 68.0 L 190.0 71.0 L 190.0 72.0 L 191.0 72.0 L 193.0 74.0 L 193.0 79.0 L 194.0 80.0 L 195.0 80.0 L 197.0 82.0 L 197.0 83.0 L 198.0 84.0 L 199.0 84.0 L 201.0 86.0 L 201.0 91.0 L 202.0 92.0 L 203.0 92.0 L 205.0 94.0 L 205.0 99.0 L 206.0 100.0 L 207.0 100.0 L 209.0 102.0 L 209.0 111.0 L 207.0 113.0 L 202.0 113.0 L 200.0 111.0 L 200.0 110.0 L 199.0 109.0 L 198.0 109.0 L 196.0 107.0 L 196.0 102.0 L 195.0 101.0 L 194.0 101.0 L 192.0 99.0 L 192.0 94.0 L 191.0 93.0 L 190.0 93.0 L 188.0 91.0 L 188.0 86.0 L 187.0 85.0 L 186.0 85.0 L 184.0 83.0 L 184.0 70.0 Z" fill="#111111" fill-rule="evenodd"/>
</svg>
