<?xml version="1.0" encoding="UTF-8"?>
<svg xmlns="http://www.w3.org/2000/svg" viewBox="0 0 70 70" width="70" height="70" role="img" aria-label="dorcronica">
  <path d="M 31 62 L 26 63 L 26 65 Z M 26 56 L 24 56 L 22 58 L 22 60 Z M 2 29 L 5 33 L 6 32 Z M 53 28 L 51 28 L 49 30 L 49 32 Z M 47 25 L 45 25 L 44 29 Z M 8 25 L 10 29 L 11 28 L 10 26 Z M 22 15 L 16 19 L 16 22 L 19 26 L 19 29 L 16 32 L 11 34 L 2 46 L 1 58 L 6 64 L 13 69 L 15 69 L 3 59 L 2 53 L 5 51 L 8 54 L 8 57 L 13 60 L 21 69 L 22 69 L 22 67 L 15 60 L 17 58 L 17 54 L 14 45 L 12 44 L 13 50 L 10 53 L 4 48 L 4 45 L 12 35 L 18 32 L 21 32 L 26 30 L 33 30 L 45 35 L 49 40 L 49 42 L 52 48 L 50 51 L 46 52 L 45 51 L 45 43 L 44 43 L 44 51 L 43 52 L 43 69 L 44 69 L 44 67 L 47 65 L 52 59 L 52 54 L 50 53 L 54 50 L 52 43 L 49 37 L 46 34 L 33 28 L 34 26 L 34 18 L 32 16 Z M 50 53 L 51 54 L 51 57 L 45 64 L 44 63 L 45 55 L 48 53 Z M 12 53 L 15 54 L 16 57 L 15 60 L 10 56 Z M 20 26 L 21 25 L 23 27 L 30 27 L 31 28 L 30 29 L 23 29 L 22 30 L 20 28 Z M 17 21 L 23 16 L 31 17 L 33 20 L 33 22 L 29 26 L 25 26 L 23 24 L 19 24 Z" fill="#111111" fill-rule="evenodd"/>
</svg>
