<?xml version="1.0" encoding="UTF-8"?>
<svg xmlns="http://www.w3.org/2000/svg" viewBox="0 0 256 312" width="512" height="512" role="img" aria-label="enxaqueca">
  <path d="M 70.0 165.0 L 69.0 166.0 L 69.0 171.0 L 70.0 172.0 L 71.0 172.0 L 73.0 174.0 L 73.0 175.0 L 74.0 176.0 L 75.0 176.0 L 77.0 178.0 L 77.0 179.0 L 78.0 180.0 L 79.0 180.0 L 80.0 181.0 L 80.0 182.0 L 82.0 184.0 L 83.0 184.0 L 88.0 179.0 L 88.0 178.0 L 86.0 176.0 L 85.0 176.0 L 84.0 175.0 L 84.0 174.0 L 83.0 173.0 L 82.0 173.0 L 80.0 171.0 L 80.0 170.0 L 79.0 169.0 L 78.0 169.0 L 76.0 167.0 L 76.0 166.0 L 75.0 165.0 Z M 98.0 133.0 L 97.0 134.0 L 97.0 139.0 L 96.0 140.0 L 95.0 140.0 L 93.0 142.0 L 93.0 143.0 L 95.0 145.0 L 96.0 145.0 L 97.0 146.0 L 97.0 151.0 L 98.0 152.0 L 99.0 152.0 L 101.0 154.0 L 101.0 155.0 L 102.0 156.0 L 111.0 156.0 L 112.0 155.0 L 112.0 154.0 L 114.0 152.0 L 115.0 152.0 L 116.0 151.0 L 116.0 150.0 L 118.0 148.0 L 119.0 148.0 L 120.0 147.0 L 120.0 142.0 L 119.0 141.0 L 118.0 141.0 L 116.0 139.0 L 116.0 134.0 L 115.0 133.0 Z M 104.0 141.0 L 105.0 140.0 L 108.0 140.0 L 109.0 141.0 L 109.0 144.0 L 108.0 145.0 L 105.0 145.0 L 104.0 144.0 Z M 86.0 121.0 L 85.0 122.0 L 85.0 123.0 L 83.0 125.0 L 82.0 125.0 L 81.0 126.0 L 81.0 131.0 L 79.0 133.0 L 78.0 133.0 L 77.0 134.0 L 77.0 151.0 L 78.0 152.0 L 79.0 152.0 L 81.0 154.0 L 81.0 159.0 L 82.0 160.0 L 83.0 160.0 L 85.0 162.0 L 85.0 163.0 L 86.0 164.0 L 87.0 164.0 L 89.0 166.0 L 89.0 167.0 L 90.0 168.0 L 95.0 168.0 L 96.0 167.0 L 96.0 162.0 L 95.0 161.0 L 94.0 161.0 L 92.0 159.0 L 92.0 158.0 L 91.0 157.0 L 90.0 157.0 L 88.0 155.0 L 88.0 134.0 L 90.0 132.0 L 91.0 132.0 L 92.0 131.0 L 92.0 130.0 L 94.0 128.0 L 95.0 128.0 L 96.0 127.0 L 96.0 123.0 L 95.0 122.0 L 95.0 121.0 Z M 83.0 105.0 L 78.0 105.0 L 77.0 106.0 L 77.0 107.0 L 75.0 109.0 L 74.0 109.0 L 73.0 110.0 L 73.0 111.0 L 71.0 113.0 L 70.0 113.0 L 69.0 114.0 L 69.0 119.0 L 67.0 121.0 L 66.0 121.0 L 65.0 122.0 L 65.0 127.0 L 63.0 129.0 L 62.0 129.0 L 61.0 130.0 L 61.0 155.0 L 62.0 156.0 L 67.0 156.0 L 68.0 155.0 L 68.0 134.0 L 70.0 132.0 L 71.0 132.0 L 72.0 131.0 L 72.0 126.0 L 74.0 124.0 L 75.0 124.0 L 76.0 123.0 L 76.0 118.0 L 78.0 116.0 L 79.0 116.0 L 80.0 115.0 L 80.0 114.0 L 82.0 112.0 L 83.0 112.0 L 84.0 111.0 L 84.0 106.0 Z M 42.0 101.0 L 37.0 106.0 L 33.0 135.0 L 29.0 138.0 L 33.0 163.0 L 13.0 182.0 L 13.0 191.0 L 25.0 198.0 L 21.0 215.0 L 29.0 234.0 L 29.0 251.0 L 42.0 264.0 L 95.0 264.0 L 114.0 296.0 L 135.0 296.0 L 138.0 292.0 L 151.0 292.0 L 154.0 288.0 L 167.0 288.0 L 170.0 284.0 L 183.0 284.0 L 186.0 280.0 L 203.0 276.0 L 208.0 266.0 L 204.0 263.0 L 204.0 254.0 L 198.0 253.0 L 197.0 267.0 L 187.0 273.0 L 174.0 273.0 L 159.0 281.0 L 146.0 281.0 L 143.0 285.0 L 122.0 289.0 L 112.0 270.0 L 91.0 253.0 L 50.0 257.0 L 36.0 247.0 L 40.0 230.0 L 36.0 227.0 L 36.0 218.0 L 28.0 211.0 L 36.0 203.0 L 36.0 194.0 L 30.0 193.0 L 24.0 182.0 L 44.0 163.0 L 44.0 154.0 L 36.0 143.0 L 44.0 127.0 L 44.0 110.0 L 48.0 107.0 L 48.0 102.0 Z M 94.0 41.0 L 89.0 59.0 L 66.0 69.0 L 49.0 91.0 L 79.0 72.0 L 81.0 87.0 L 101.0 94.0 L 102.0 124.0 L 111.0 124.0 L 132.0 83.0 L 132.0 74.0 L 116.0 66.0 L 151.0 64.0 L 157.0 70.0 L 141.0 82.0 L 141.0 95.0 L 153.0 107.0 L 142.0 113.0 L 130.0 105.0 L 137.0 119.0 L 131.0 125.0 L 123.0 117.0 L 117.0 122.0 L 129.0 138.0 L 118.0 168.0 L 145.0 138.0 L 145.0 155.0 L 125.0 178.0 L 130.0 184.0 L 152.0 159.0 L 152.0 134.0 L 164.0 131.0 L 163.0 125.0 L 144.0 128.0 L 164.0 111.0 L 164.0 102.0 L 148.0 87.0 L 191.0 64.0 L 205.0 79.0 L 173.0 94.0 L 185.0 114.0 L 173.0 123.0 L 192.0 119.0 L 184.0 98.0 L 202.0 88.0 L 225.0 118.0 L 225.0 171.0 L 213.0 195.0 L 189.0 218.0 L 195.0 244.0 L 200.0 218.0 L 232.0 179.0 L 232.0 114.0 L 212.0 87.0 L 212.0 74.0 L 191.0 53.0 L 162.0 61.0 L 126.0 53.0 L 119.0 41.0 Z M 102.0 48.0 L 111.0 48.0 L 113.0 50.0 L 113.0 55.0 L 109.0 58.0 L 109.0 67.0 L 105.0 70.0 L 105.0 75.0 L 106.0 75.0 L 109.0 78.0 L 110.0 80.0 L 119.0 80.0 L 121.0 82.0 L 121.0 87.0 L 119.0 89.0 L 118.0 89.0 L 117.0 91.0 L 117.0 95.0 L 115.0 97.0 L 114.0 97.0 L 112.0 95.0 L 112.0 86.0 L 111.0 86.0 L 108.0 83.0 L 107.0 81.0 L 94.0 81.0 L 92.0 79.0 L 92.0 66.0 L 96.0 63.0 L 96.0 54.0 L 98.0 52.0 L 99.0 52.0 Z" fill="#111111" fill-rule="evenodd"/>
</svg>
