<?xml version="1.0" encoding="UTF-8"?>
<svg xmlns="http://www.w3.org/2000/svg" viewBox="0 0 78 74" width="78" height="74" role="img" aria-label="auriculoterapia">
  <path d="M 67 9 L 63 9 L 61 14 L 55 10 L 59 15 L 54 19 L 49 15 L 44 13 L 36 13 L 33 14 L 28 18 L 24 15 L 24 13 L 26 11 L 33 7 L 45 6 L 52 9 L 53 8 L 50 6 L 47 6 L 46 5 L 35 5 L 28 8 L 21 14 L 19 9 L 14 9 L 14 14 L 21 16 L 18 22 L 18 33 L 19 32 L 19 23 L 21 18 L 24 17 L 27 19 L 25 25 L 26 34 L 30 39 L 32 39 L 35 42 L 35 45 L 30 49 L 30 50 L 32 50 L 37 44 L 36 41 L 33 38 L 31 38 L 28 35 L 27 32 L 27 23 L 32 20 L 30 19 L 31 17 L 38 14 L 46 15 L 52 20 L 51 23 L 54 24 L 54 28 L 56 27 L 55 21 L 59 17 L 61 18 L 63 23 L 63 32 L 60 39 L 56 43 L 49 43 L 49 44 L 53 44 L 54 45 L 52 47 L 44 51 L 44 55 L 42 57 L 36 57 L 37 59 L 41 59 L 42 60 L 36 66 L 29 67 L 25 65 L 20 60 L 19 57 L 19 46 L 20 45 L 29 45 L 30 43 L 20 43 L 19 42 L 19 36 L 18 36 L 18 41 L 17 42 L 15 41 L 10 41 L 9 42 L 9 45 L 11 47 L 14 47 L 16 45 L 18 46 L 18 59 L 25 67 L 35 68 L 40 65 L 45 59 L 50 59 L 52 61 L 55 61 L 58 57 L 56 55 L 53 54 L 49 57 L 46 57 L 45 56 L 45 53 L 48 50 L 52 49 L 58 44 L 62 44 L 66 47 L 69 45 L 70 42 L 68 40 L 64 40 L 61 43 L 60 42 L 63 37 L 64 30 L 65 29 L 62 16 L 63 15 L 66 16 L 69 13 L 69 11 Z M 52 57 L 55 56 L 56 58 L 54 60 Z M 11 45 L 11 43 L 13 42 L 14 44 L 12 46 Z M 64 44 L 65 41 L 68 42 L 66 45 Z M 63 13 L 64 10 L 67 12 L 65 14 Z M 15 13 L 16 10 L 19 11 L 17 14 Z" fill="#111111" fill-rule="evenodd"/>
</svg>
