<?xml version="1.0" encoding="UTF-8"?>
<svg xmlns="http://www.w3.org/2000/svg" viewBox="0 0 66 64" width="66" height="64" role="img" aria-label="acupuntura_agulhas">
  <path d="M 10 8 L 9 9 L 9 12 L 10 13 L 12 30 L 13 32 L 15 33 L 16 36 L 17 46 L 14 49 L 11 50 L 9 52 L 9 54 L 16 49 L 26 48 L 27 49 L 27 56 L 29 54 L 29 48 L 32 46 L 29 45 L 29 39 L 31 37 L 31 18 L 30 16 L 28 15 L 25 16 L 25 38 L 27 40 L 27 44 L 25 46 L 20 47 L 18 45 L 18 40 L 16 33 L 18 30 L 18 27 L 17 26 L 15 10 L 13 8 Z M 28 17 L 29 18 L 29 37 L 28 38 L 26 36 L 26 19 Z M 12 10 L 14 12 L 14 17 L 16 23 L 16 30 L 15 31 L 13 28 L 13 23 L 11 16 L 11 11 Z M 41 7 L 40 8 L 39 26 L 38 27 L 38 29 L 40 32 L 39 44 L 37 46 L 35 46 L 35 47 L 57 50 L 58 51 L 58 55 L 61 51 L 65 52 L 65 51 L 60 49 L 61 47 L 61 42 L 65 36 L 65 29 L 64 29 L 64 34 L 61 38 L 60 37 L 63 18 L 65 17 L 65 15 L 62 16 L 62 20 L 61 21 L 61 26 L 59 33 L 59 38 L 60 39 L 60 45 L 57 49 L 49 47 L 42 47 L 40 45 L 41 32 L 44 29 L 45 14 L 46 13 L 46 9 L 44 7 Z M 43 8 L 44 9 L 44 19 L 43 20 L 43 27 L 41 29 L 40 28 L 40 21 L 41 20 L 41 11 Z" fill="#111111" fill-rule="evenodd"/>
</svg>
