<?xml version="1.0" encoding="UTF-8"?>
<svg xmlns="http://www.w3.org/2000/svg" viewBox="0 0 62 63" width="62" height="63" role="img" aria-label="moxabustao">
  <path d="M 9 38 L 9 41 L 13 43 L 13 52 L 15 51 L 15 43 L 16 42 L 18 43 L 17 52 L 19 48 L 27 48 L 28 50 L 29 49 L 29 46 L 20 47 L 19 46 L 19 43 L 20 42 L 26 42 L 27 44 L 29 42 L 31 42 L 34 51 L 37 52 L 39 50 L 37 43 L 38 42 L 61 42 L 61 28 L 58 32 L 56 30 L 27 31 L 26 30 L 28 27 L 29 28 L 31 27 L 37 27 L 39 25 L 38 23 L 35 25 L 30 25 L 28 23 L 28 17 L 35 13 L 35 10 L 33 7 L 27 7 L 25 10 L 26 15 L 21 18 L 19 24 L 19 30 L 26 30 L 27 31 L 26 32 L 16 32 L 15 33 L 16 36 L 15 38 Z M 57 35 L 59 34 L 61 37 L 58 38 Z" fill="#111111" fill-rule="evenodd"/>
</svg>
