<?xml version="1.0" encoding="UTF-8"?>
<svg xmlns="http://www.w3.org/2000/svg" viewBox="0 0 316 296" width="512" height="512" role="img" aria-label="problemas_digestivos">
  <path d="M 171.0 41.0 L 165.0 47.0 L 165.0 115.0 L 161.0 118.0 L 165.0 147.0 L 170.0 152.0 L 175.0 152.0 L 190.0 136.0 L 203.0 136.0 L 209.0 142.0 L 209.0 159.0 L 197.0 174.0 L 197.0 179.0 L 175.0 197.0 L 166.0 197.0 L 159.0 189.0 L 154.0 189.0 L 143.0 181.0 L 130.0 185.0 L 125.0 195.0 L 125.0 215.0 L 130.0 220.0 L 134.0 192.0 L 147.0 192.0 L 166.0 204.0 L 179.0 204.0 L 200.0 187.0 L 200.0 182.0 L 208.0 175.0 L 208.0 170.0 L 216.0 159.0 L 216.0 138.0 L 203.0 129.0 L 186.0 129.0 L 183.0 133.0 L 177.0 134.0 L 175.0 141.0 L 172.0 139.0 L 172.0 62.0 L 176.0 59.0 L 176.0 46.0 Z M 155.0 41.0 L 153.0 42.0 L 153.0 71.0 L 149.0 74.0 L 149.0 99.0 L 145.0 102.0 L 145.0 143.0 L 149.0 146.0 L 149.0 151.0 L 161.0 162.0 L 161.0 167.0 L 159.0 169.0 L 150.0 169.0 L 147.0 165.0 L 126.0 165.0 L 113.0 178.0 L 114.0 208.0 L 120.0 207.0 L 120.0 182.0 L 130.0 172.0 L 143.0 172.0 L 146.0 176.0 L 159.0 176.0 L 162.0 172.0 L 168.0 171.0 L 168.0 162.0 L 164.0 159.0 L 164.0 154.0 L 156.0 147.0 L 156.0 142.0 L 152.0 139.0 L 152.0 106.0 L 156.0 103.0 L 156.0 78.0 L 160.0 74.0 L 160.0 47.0 Z M 134.0 25.0 L 127.0 53.0 L 78.0 61.0 L 57.0 78.0 L 37.0 203.0 L 62.0 236.0 L 118.0 268.0 L 183.0 280.0 L 288.0 215.0 L 280.0 90.0 L 251.0 61.0 L 202.0 53.0 L 189.0 26.0 L 198.0 60.0 L 247.0 68.0 L 269.0 86.0 L 285.0 190.0 L 263.0 229.0 L 207.0 261.0 L 176.0 246.0 L 211.0 240.0 L 256.0 195.0 L 235.0 141.0 L 225.0 142.0 L 225.0 191.0 L 234.0 156.0 L 249.0 191.0 L 199.0 237.0 L 175.0 217.0 L 122.0 233.0 L 80.0 191.0 L 94.0 156.0 L 104.0 191.0 L 104.0 142.0 L 89.0 146.0 L 73.0 195.0 L 118.0 240.0 L 181.0 230.0 L 165.0 247.0 L 187.0 256.0 L 183.0 265.0 L 138.0 269.0 L 66.0 229.0 L 44.0 195.0 L 60.0 86.0 L 82.0 68.0 L 131.0 60.0 Z" fill="#111111" fill-rule="evenodd"/>
</svg>
