<svg xmlns="http://www.w3.org/2000/svg" viewBox="0 0 128 128" width="128" height="128" role="img" aria-label="dietoterapia">
  <title>dietoterapia</title>
  <path d="M 39.45 86.25 L 39.45 90.85 L 57.86 90.85 L 57.86 86.25 Z M 39.45 73.97 L 39.45 80.11 L 56.33 80.11 L 57.86 78.58 L 56.33 73.97 Z M 39.45 63.23 L 39.45 67.84 L 57.86 67.84 L 57.86 63.23 Z M 39.45 50.96 L 39.45 57.10 L 56.33 57.10 L 57.86 55.56 L 56.33 50.96 Z M 39.45 40.22 L 39.45 44.82 L 68.60 44.82 L 68.60 40.22 Z M 16.44 17.21 L 16.44 113.86 L 99.29 113.86 L 110.03 95.45 L 108.49 77.04 L 113.10 70.90 L 113.10 61.70 L 91.62 61.70 L 91.62 17.21 Z M 77.81 78.58 L 99.29 78.58 L 103.89 81.64 L 105.42 93.92 L 102.36 103.12 L 97.75 109.26 L 80.88 109.26 L 76.27 106.19 L 71.67 92.38 L 71.67 84.71 Z M 93.15 72.44 L 97.75 66.30 L 106.96 66.30 L 108.49 67.84 L 103.89 75.51 Z M 70.14 67.84 L 71.67 66.30 L 79.34 66.30 L 83.95 72.44 L 82.41 73.97 L 73.21 73.97 L 70.14 70.90 Z M 34.85 32.55 L 73.21 32.55 L 74.74 34.08 L 74.74 60.16 L 64.00 61.70 L 64.00 69.37 L 68.60 77.04 L 67.07 83.18 L 68.60 96.99 L 67.07 98.52 L 34.85 98.52 L 31.78 95.45 L 31.78 35.62 Z M 71.67 21.81 L 85.48 21.81 L 87.01 23.34 L 87.01 61.70 L 85.48 63.23 L 82.41 63.23 L 79.34 60.16 L 79.34 27.95 L 71.67 27.95 L 70.14 26.41 Z M 40.99 23.34 L 42.52 21.81 L 64.00 21.81 L 65.53 26.41 L 64.00 27.95 L 42.52 27.95 Z M 22.58 21.81 L 36.38 23.34 L 34.85 27.95 L 27.18 29.48 L 27.18 101.59 L 70.14 103.12 L 70.14 109.26 L 21.04 107.73 Z" fill="#111111" fill-rule="evenodd"/>
</svg>
