<?xml version="1.0" encoding="UTF-8"?>
<svg xmlns="http://www.w3.org/2000/svg" viewBox="0 0 78 76" width="78" height="76" role="img" aria-label="acupuntura">
  <path d="M 41 49 L 38 50 L 38 53 L 40 55 L 43 52 L 43 50 Z M 39 52 L 40 51 L 41 52 L 40 53 Z M 38 24 L 38 28 L 41 29 L 43 27 L 43 25 L 42 24 Z M 39 27 L 40 25 L 42 26 L 40 28 Z M 38 11 L 38 15 L 41 16 L 43 14 L 43 12 L 42 11 Z M 39 14 L 40 12 L 42 13 L 40 15 Z M 36 4 L 33 8 L 33 14 L 36 20 L 32 24 L 30 24 L 27 26 L 26 32 L 27 29 L 37 21 L 37 18 L 34 13 L 35 7 L 37 5 L 43 5 L 46 8 L 47 11 L 46 15 L 44 17 L 44 22 L 52 28 L 43 36 L 39 36 L 38 37 L 38 41 L 40 42 L 42 41 L 43 38 L 48 33 L 53 30 L 55 34 L 56 41 L 66 57 L 65 58 L 53 46 L 50 37 L 48 37 L 48 47 L 49 49 L 51 45 L 60 56 L 59 57 L 58 56 L 54 56 L 51 54 L 51 52 L 50 52 L 50 55 L 53 57 L 61 58 L 62 59 L 64 59 L 66 57 L 69 62 L 63 66 L 45 64 L 44 63 L 36 63 L 35 64 L 29 64 L 28 65 L 22 65 L 21 66 L 17 66 L 12 63 L 12 60 L 15 56 L 16 59 L 18 59 L 19 58 L 27 57 L 31 54 L 32 47 L 33 46 L 33 39 L 32 37 L 30 38 L 28 45 L 16 57 L 15 56 L 25 40 L 26 35 L 24 35 L 24 39 L 14 55 L 10 59 L 10 63 L 16 67 L 31 66 L 38 64 L 48 65 L 49 66 L 56 66 L 57 67 L 64 67 L 68 65 L 71 62 L 71 60 L 67 56 L 57 40 L 55 28 L 56 27 L 59 27 L 62 24 L 61 22 L 59 21 L 56 22 L 56 24 L 54 26 L 48 24 L 45 21 L 45 18 L 48 13 L 47 7 L 44 4 Z M 30 45 L 31 46 L 30 53 L 26 56 L 22 56 L 21 57 L 20 55 Z M 39 39 L 40 38 L 41 39 L 40 40 Z M 57 24 L 58 23 L 60 24 L 59 25 Z" fill="#111111" fill-rule="evenodd"/>
</svg>
