<?xml version="1.0" encoding="UTF-8"?>
<svg xmlns="http://www.w3.org/2000/svg" viewBox="0 0 264 292" width="512" height="512" role="img" aria-label="vicio_em_fumar">
  <path d="M 195.0 113.0 L 194.0 114.0 L 193.0 114.0 L 193.0 115.0 L 191.0 117.0 L 190.0 117.0 L 189.0 118.0 L 189.0 131.0 L 190.0 132.0 L 191.0 132.0 L 193.0 134.0 L 193.0 135.0 L 194.0 136.0 L 195.0 136.0 L 197.0 138.0 L 197.0 139.0 L 198.0 140.0 L 207.0 140.0 L 208.0 139.0 L 208.0 138.0 L 210.0 136.0 L 211.0 136.0 L 212.0 135.0 L 212.0 134.0 L 214.0 132.0 L 215.0 132.0 L 216.0 131.0 L 216.0 122.0 L 215.0 121.0 L 214.0 121.0 L 212.0 119.0 L 212.0 118.0 L 211.0 117.0 L 210.0 117.0 L 208.0 115.0 L 208.0 114.0 L 207.0 113.0 Z M 202.0 120.0 L 203.0 120.0 L 209.0 126.0 L 209.0 127.0 L 203.0 133.0 L 202.0 133.0 L 196.0 127.0 L 196.0 126.0 Z M 74.0 101.0 L 65.0 114.0 L 65.0 123.0 L 101.0 147.0 L 70.0 149.0 L 65.0 154.0 L 65.0 231.0 L 72.0 231.0 L 74.0 200.0 L 119.0 196.0 L 125.0 203.0 L 117.0 214.0 L 117.0 235.0 L 123.0 236.0 L 124.0 218.0 L 134.0 208.0 L 156.0 203.0 L 156.0 162.0 L 162.0 156.0 L 173.0 158.0 L 173.0 223.0 L 149.0 250.0 L 147.0 269.0 L 74.0 269.0 L 72.0 242.0 L 66.0 241.0 L 65.0 275.0 L 155.0 276.0 L 160.0 271.0 L 160.0 250.0 L 184.0 219.0 L 184.0 154.0 L 164.0 147.0 L 164.0 130.0 L 159.0 125.0 L 134.0 125.0 L 130.0 133.0 L 123.0 125.0 Z M 143.0 176.0 L 145.0 178.0 L 145.0 195.0 L 143.0 197.0 L 138.0 197.0 L 136.0 195.0 L 136.0 194.0 L 140.0 190.0 L 140.0 178.0 L 142.0 176.0 Z M 122.0 156.0 L 131.0 156.0 L 133.0 158.0 L 133.0 187.0 L 131.0 189.0 L 122.0 189.0 L 120.0 187.0 L 120.0 182.0 L 119.0 182.0 L 116.0 179.0 L 116.0 178.0 L 119.0 175.0 L 120.0 175.0 L 120.0 170.0 L 119.0 170.0 L 116.0 167.0 L 116.0 166.0 L 119.0 163.0 L 120.0 163.0 L 120.0 158.0 Z M 98.0 156.0 L 107.0 156.0 L 109.0 158.0 L 109.0 187.0 L 107.0 189.0 L 98.0 189.0 L 96.0 187.0 L 96.0 158.0 Z M 74.0 156.0 L 83.0 156.0 L 85.0 158.0 L 85.0 187.0 L 83.0 189.0 L 74.0 189.0 L 72.0 187.0 L 72.0 158.0 Z M 151.0 132.0 L 153.0 134.0 L 153.0 151.0 L 151.0 153.0 L 150.0 153.0 L 149.0 154.0 L 149.0 159.0 L 147.0 161.0 L 146.0 161.0 L 146.0 162.0 L 143.0 165.0 L 142.0 165.0 L 140.0 163.0 L 140.0 134.0 L 142.0 132.0 Z M 92.0 122.0 L 94.0 120.0 L 95.0 120.0 L 98.0 123.0 L 98.0 124.0 L 103.0 124.0 L 105.0 126.0 L 105.0 127.0 L 106.0 128.0 L 107.0 128.0 L 109.0 130.0 L 109.0 131.0 L 110.0 132.0 L 115.0 132.0 L 117.0 134.0 L 117.0 135.0 L 118.0 136.0 L 123.0 136.0 L 125.0 138.0 L 125.0 139.0 L 126.0 140.0 L 131.0 140.0 L 133.0 142.0 L 133.0 147.0 L 131.0 149.0 L 122.0 149.0 L 120.0 147.0 L 120.0 146.0 L 119.0 145.0 L 114.0 145.0 L 112.0 143.0 L 112.0 142.0 L 111.0 141.0 L 110.0 141.0 L 108.0 139.0 L 108.0 138.0 L 107.0 137.0 L 102.0 137.0 L 100.0 135.0 L 100.0 134.0 L 99.0 133.0 L 94.0 133.0 L 92.0 131.0 Z M 72.0 118.0 L 75.0 115.0 L 76.0 115.0 L 76.0 114.0 L 78.0 112.0 L 83.0 112.0 L 85.0 114.0 L 85.0 119.0 L 83.0 121.0 L 74.0 121.0 L 72.0 119.0 Z M 224.0 58.0 L 211.0 41.0 L 198.0 37.0 L 183.0 21.0 L 162.0 21.0 L 147.0 37.0 L 134.0 41.0 L 127.0 53.0 L 90.0 45.0 L 81.0 50.0 L 81.0 55.0 L 123.0 60.0 L 129.0 75.0 L 139.0 80.0 L 140.0 70.0 L 132.0 63.0 L 136.0 50.0 L 155.0 44.0 L 166.0 28.0 L 179.0 28.0 L 190.0 44.0 L 207.0 48.0 L 217.0 66.0 L 213.0 83.0 L 199.0 97.0 L 183.0 105.0 L 154.0 105.0 L 126.0 93.0 L 99.0 73.0 L 70.0 73.0 L 58.0 89.0 L 55.0 84.0 L 71.0 57.0 L 62.0 57.0 L 53.0 66.0 L 49.0 95.0 L 59.0 104.0 L 68.0 95.0 L 70.0 84.0 L 91.0 80.0 L 146.0 112.0 L 187.0 112.0 L 216.0 95.0 L 224.0 79.0 Z" fill="#111111" fill-rule="evenodd"/>
</svg>
