<?xml version="1.0" encoding="UTF-8"?>
<svg xmlns="http://www.w3.org/2000/svg" viewBox="0 0 77 80" width="77" height="80" role="img" aria-label="fitoterapia_chinesa">
  <path d="M 64 15 L 60 12 L 58 12 L 39 31 L 37 31 L 27 41 L 24 33 L 19 28 L 14 25 L 5 23 L 5 26 L 4 27 L 4 39 L 5 40 L 4 43 L 4 55 L 8 64 L 15 71 L 26 75 L 31 75 L 39 72 L 48 75 L 53 75 L 61 66 L 63 60 L 63 56 L 62 55 L 62 52 L 59 47 L 54 42 L 49 43 L 48 42 L 48 39 L 67 20 L 67 18 L 66 18 Z M 35 54 L 44 56 L 47 58 L 50 62 L 51 65 L 49 66 L 43 61 L 41 61 L 41 63 L 47 69 L 46 71 L 42 70 L 36 64 L 34 59 L 34 55 Z M 52 46 L 57 50 L 60 57 L 59 62 L 56 67 L 55 66 L 55 56 L 50 57 L 48 55 L 48 52 Z M 7 54 L 7 47 L 8 46 L 46 46 L 47 47 L 44 52 L 41 52 L 40 51 L 31 51 L 30 52 L 32 63 L 36 69 L 34 71 L 29 71 L 28 72 L 18 69 L 10 61 Z M 44 40 L 41 43 L 33 43 L 32 42 L 38 35 Z M 7 28 L 10 27 L 16 30 L 22 36 L 23 41 L 20 43 L 16 37 L 13 37 L 13 39 L 15 41 L 13 43 L 10 43 L 7 38 Z M 60 16 L 63 19 L 45 36 L 43 34 L 43 32 Z" fill="#111111" fill-rule="evenodd"/>
</svg>
