<?xml version="1.0" encoding="UTF-8"?>
<svg xmlns="http://www.w3.org/2000/svg" viewBox="0 0 244 220" width="512" height="512" role="img" aria-label="traumas_e_fobias">
  <path d="M 46.0 49.0 L 45.0 50.0 L 45.0 63.0 L 46.0 63.0 L 49.0 66.0 L 49.0 67.0 L 46.0 70.0 L 45.0 70.0 L 45.0 83.0 L 46.0 84.0 L 51.0 84.0 L 52.0 83.0 L 52.0 82.0 L 48.0 78.0 L 48.0 75.0 L 49.0 74.0 L 49.0 73.0 L 52.0 71.0 L 52.0 62.0 L 49.0 60.0 L 49.0 59.0 L 48.0 58.0 L 48.0 55.0 L 52.0 51.0 L 52.0 50.0 L 51.0 49.0 Z M 34.0 49.0 L 32.0 51.0 L 32.0 52.0 L 31.0 53.0 L 30.0 53.0 L 29.0 54.0 L 29.0 63.0 L 30.0 64.0 L 31.0 64.0 L 32.0 65.0 L 32.0 66.0 L 33.0 67.0 L 33.0 70.0 L 32.0 71.0 L 32.0 72.0 L 31.0 73.0 L 30.0 73.0 L 29.0 74.0 L 29.0 79.0 L 30.0 80.0 L 31.0 80.0 L 32.0 81.0 L 32.0 82.0 L 34.0 84.0 L 35.0 84.0 L 36.0 83.0 L 36.0 62.0 L 35.0 62.0 L 32.0 59.0 L 32.0 58.0 L 35.0 55.0 L 36.0 55.0 L 36.0 50.0 L 35.0 49.0 Z M 86.0 37.0 L 69.0 54.0 L 61.0 103.0 L 37.0 122.0 L 33.0 187.0 L 40.0 127.0 L 57.0 109.0 L 67.0 108.0 L 69.0 131.0 L 54.0 129.0 L 53.0 143.0 L 70.0 188.0 L 72.0 174.0 L 56.0 134.0 L 65.0 138.0 L 67.0 152.0 L 72.0 118.0 L 79.0 120.0 L 82.0 112.0 L 86.0 120.0 L 97.0 118.0 L 98.0 132.0 L 105.0 130.0 L 98.0 188.0 L 110.0 144.0 L 128.0 187.0 L 120.0 166.0 L 120.0 130.0 L 127.0 132.0 L 128.0 118.0 L 135.0 120.0 L 138.0 112.0 L 142.0 120.0 L 149.0 118.0 L 154.0 148.0 L 165.0 134.0 L 161.0 162.0 L 149.0 183.0 L 156.0 183.0 L 167.0 156.0 L 185.0 162.0 L 185.0 171.0 L 173.0 178.0 L 178.0 188.0 L 203.0 188.0 L 208.0 174.0 L 198.0 173.0 L 196.0 162.0 L 212.0 159.0 L 208.0 94.0 L 192.0 63.0 L 192.0 34.0 L 189.0 63.0 L 171.0 105.0 L 160.0 99.0 L 156.0 58.0 L 139.0 37.0 L 119.0 29.0 Z M 190.0 160.0 L 191.0 160.0 L 193.0 162.0 L 193.0 174.0 L 197.0 178.0 L 197.0 179.0 L 195.0 181.0 L 186.0 181.0 L 184.0 179.0 L 184.0 178.0 L 188.0 174.0 L 188.0 162.0 Z M 154.0 108.0 L 166.0 108.0 L 167.0 109.0 L 168.0 109.0 L 169.0 110.0 L 169.0 111.0 L 170.0 112.0 L 171.0 112.0 L 173.0 114.0 L 173.0 151.0 L 171.0 153.0 L 170.0 153.0 L 168.0 151.0 L 168.0 131.0 L 167.0 130.0 L 167.0 129.0 L 158.0 129.0 L 156.0 127.0 L 156.0 118.0 L 155.0 117.0 L 154.0 117.0 L 152.0 115.0 L 152.0 110.0 Z M 182.0 92.0 L 199.0 92.0 L 201.0 94.0 L 201.0 151.0 L 202.0 151.0 L 205.0 154.0 L 205.0 155.0 L 203.0 157.0 L 178.0 157.0 L 176.0 155.0 L 176.0 154.0 L 179.0 151.0 L 180.0 151.0 L 180.0 94.0 Z M 185.0 134.0 L 185.0 135.0 L 186.0 136.0 L 195.0 136.0 L 196.0 135.0 L 196.0 134.0 L 195.0 133.0 L 186.0 133.0 Z M 185.0 123.0 L 185.0 126.0 L 187.0 128.0 L 194.0 128.0 L 196.0 126.0 L 196.0 123.0 L 194.0 121.0 L 187.0 121.0 Z M 185.0 114.0 L 185.0 115.0 L 186.0 116.0 L 195.0 116.0 L 196.0 115.0 L 196.0 114.0 L 195.0 113.0 L 186.0 113.0 Z M 185.0 102.0 L 185.0 106.0 L 187.0 108.0 L 194.0 108.0 L 196.0 106.0 L 196.0 102.0 L 195.0 101.0 L 186.0 101.0 Z M 155.0 88.0 L 157.0 90.0 L 157.0 99.0 L 155.0 101.0 L 154.0 101.0 L 154.0 102.0 L 151.0 105.0 L 150.0 105.0 L 148.0 103.0 L 148.0 95.0 L 149.0 94.0 L 149.0 93.0 L 150.0 92.0 L 151.0 92.0 L 151.0 91.0 L 154.0 88.0 Z M 70.0 88.0 L 71.0 88.0 L 73.0 90.0 L 73.0 103.0 L 71.0 105.0 L 70.0 105.0 L 68.0 103.0 L 68.0 90.0 Z M 184.0 86.0 L 186.0 84.0 L 195.0 84.0 L 197.0 86.0 L 197.0 87.0 L 195.0 89.0 L 186.0 89.0 L 184.0 87.0 Z M 190.0 68.0 L 191.0 68.0 L 193.0 70.0 L 193.0 79.0 L 191.0 81.0 L 190.0 81.0 L 188.0 79.0 L 188.0 70.0 Z M 94.0 60.0 L 99.0 60.0 L 101.0 62.0 L 101.0 67.0 L 106.0 68.0 L 110.0 72.0 L 115.0 68.0 L 123.0 68.0 L 130.0 76.0 L 142.0 76.0 L 145.0 79.0 L 145.0 107.0 L 149.0 111.0 L 146.0 113.0 L 138.0 105.0 L 132.0 112.0 L 126.0 113.0 L 125.0 114.0 L 125.0 123.0 L 123.0 125.0 L 118.0 125.0 L 117.0 130.0 L 113.0 134.0 L 117.0 138.0 L 115.0 141.0 L 111.0 141.0 L 108.0 138.0 L 108.0 126.0 L 102.0 125.0 L 100.0 123.0 L 100.0 114.0 L 99.0 113.0 L 90.0 113.0 L 87.0 109.0 L 82.0 109.0 L 80.0 107.0 L 80.0 74.0 Z M 68.0 74.0 L 72.0 71.0 L 72.0 59.0 L 80.0 51.0 L 80.0 46.0 L 82.0 44.0 L 87.0 44.0 L 94.0 36.0 L 126.0 36.0 L 130.0 40.0 L 136.0 41.0 L 148.0 53.0 L 149.0 59.0 L 153.0 63.0 L 153.0 83.0 L 151.0 85.0 L 148.0 83.0 L 147.0 73.0 L 135.0 73.0 L 131.0 69.0 L 126.0 69.0 L 119.0 61.0 L 114.0 65.0 L 107.0 65.0 L 100.0 59.0 L 99.0 53.0 L 94.0 53.0 L 73.0 74.0 L 73.0 83.0 L 71.0 85.0 L 68.0 83.0 Z" fill="#111111" fill-rule="evenodd"/>
</svg>
