<?xml version="1.0" encoding="UTF-8"?>
<svg xmlns="http://www.w3.org/2000/svg" viewBox="0 0 288 284" width="512" height="512" role="img" aria-label="insonia">
  <path d="M 246.0 141.0 L 245.0 142.0 L 245.0 143.0 L 244.0 144.0 L 243.0 144.0 L 241.0 146.0 L 241.0 147.0 L 243.0 149.0 L 244.0 149.0 L 245.0 150.0 L 245.0 151.0 L 246.0 152.0 L 251.0 152.0 L 252.0 151.0 L 252.0 142.0 L 251.0 141.0 Z M 231.0 17.0 L 222.0 17.0 L 221.0 18.0 L 221.0 19.0 L 219.0 21.0 L 218.0 21.0 L 217.0 22.0 L 217.0 23.0 L 215.0 25.0 L 214.0 25.0 L 211.0 29.0 L 210.0 29.0 L 209.0 30.0 L 209.0 35.0 L 205.0 38.0 L 205.0 39.0 L 207.0 41.0 L 208.0 41.0 L 209.0 42.0 L 209.0 43.0 L 210.0 43.0 L 213.0 46.0 L 213.0 47.0 L 210.0 50.0 L 209.0 50.0 L 209.0 55.0 L 205.0 58.0 L 205.0 59.0 L 207.0 61.0 L 208.0 61.0 L 209.0 62.0 L 209.0 63.0 L 210.0 63.0 L 211.0 64.0 L 215.0 64.0 L 216.0 63.0 L 216.0 62.0 L 220.0 59.0 L 220.0 54.0 L 222.0 52.0 L 223.0 52.0 L 224.0 51.0 L 224.0 50.0 L 226.0 48.0 L 227.0 48.0 L 230.0 44.0 L 231.0 44.0 L 232.0 43.0 L 232.0 38.0 L 228.0 35.0 L 228.0 26.0 L 232.0 23.0 L 232.0 18.0 Z M 251.0 65.0 L 222.0 77.0 L 154.0 57.0 L 148.0 34.0 L 156.0 18.0 L 146.0 17.0 L 133.0 34.0 L 135.0 57.0 L 67.0 77.0 L 51.0 65.0 L 29.0 74.0 L 25.0 91.0 L 41.0 106.0 L 41.0 187.0 L 25.0 211.0 L 42.0 228.0 L 62.0 216.0 L 89.0 226.0 L 61.0 250.0 L 58.0 272.0 L 231.0 272.0 L 228.0 250.0 L 200.0 226.0 L 223.0 216.0 L 247.0 228.0 L 264.0 202.0 L 248.0 187.0 L 252.0 166.0 L 242.0 165.0 L 237.0 191.0 L 253.0 206.0 L 243.0 217.0 L 222.0 201.0 L 174.0 221.0 L 192.0 191.0 L 200.0 118.0 L 179.0 89.0 L 126.0 81.0 L 97.0 102.0 L 85.0 134.0 L 97.0 191.0 L 117.0 219.0 L 67.0 201.0 L 46.0 217.0 L 36.0 206.0 L 52.0 191.0 L 52.0 98.0 L 36.0 82.0 L 51.0 76.0 L 63.0 92.0 L 122.0 68.0 L 167.0 68.0 L 227.0 92.0 L 247.0 76.0 L 253.0 87.0 L 237.0 98.0 L 237.0 119.0 L 251.0 128.0 L 248.0 106.0 L 264.0 91.0 Z M 68.0 258.0 L 82.0 244.0 L 87.0 244.0 L 90.0 240.0 L 107.0 240.0 L 110.0 236.0 L 115.0 236.0 L 118.0 240.0 L 123.0 240.0 L 126.0 244.0 L 131.0 244.0 L 134.0 248.0 L 155.0 248.0 L 158.0 244.0 L 163.0 244.0 L 166.0 240.0 L 171.0 240.0 L 174.0 236.0 L 179.0 236.0 L 182.0 240.0 L 199.0 240.0 L 202.0 244.0 L 207.0 244.0 L 221.0 259.0 L 219.0 261.0 L 70.0 261.0 Z M 128.0 222.0 L 130.0 220.0 L 131.0 220.0 L 134.0 223.0 L 134.0 224.0 L 155.0 224.0 L 155.0 223.0 L 158.0 220.0 L 159.0 220.0 L 161.0 222.0 L 161.0 231.0 L 159.0 233.0 L 154.0 233.0 L 153.0 234.0 L 153.0 235.0 L 151.0 237.0 L 138.0 237.0 L 136.0 235.0 L 136.0 234.0 L 135.0 233.0 L 130.0 233.0 L 128.0 231.0 Z M 118.0 136.0 L 123.0 136.0 L 126.0 132.0 L 131.0 132.0 L 134.0 136.0 L 139.0 136.0 L 142.0 140.0 L 147.0 140.0 L 150.0 144.0 L 155.0 144.0 L 158.0 148.0 L 167.0 148.0 L 170.0 152.0 L 179.0 152.0 L 181.0 154.0 L 181.0 187.0 L 177.0 190.0 L 177.0 195.0 L 163.0 209.0 L 154.0 209.0 L 151.0 213.0 L 138.0 213.0 L 135.0 209.0 L 126.0 209.0 L 112.0 195.0 L 112.0 190.0 L 108.0 187.0 L 108.0 146.0 Z M 129.0 190.0 L 129.0 191.0 L 131.0 193.0 L 132.0 193.0 L 133.0 194.0 L 133.0 195.0 L 134.0 196.0 L 139.0 196.0 L 140.0 195.0 L 140.0 194.0 L 142.0 192.0 L 147.0 192.0 L 149.0 194.0 L 149.0 195.0 L 150.0 196.0 L 155.0 196.0 L 156.0 195.0 L 156.0 194.0 L 157.0 193.0 L 158.0 193.0 L 160.0 191.0 L 160.0 190.0 L 158.0 188.0 L 157.0 188.0 L 156.0 187.0 L 156.0 186.0 L 155.0 185.0 L 154.0 185.0 L 152.0 183.0 L 152.0 182.0 L 151.0 181.0 L 138.0 181.0 L 137.0 182.0 L 137.0 183.0 L 135.0 185.0 L 134.0 185.0 L 133.0 186.0 L 133.0 187.0 L 132.0 188.0 L 131.0 188.0 Z M 153.0 158.0 L 153.0 171.0 L 154.0 172.0 L 171.0 172.0 L 172.0 171.0 L 172.0 166.0 L 171.0 165.0 L 170.0 165.0 L 168.0 163.0 L 168.0 162.0 L 167.0 161.0 L 162.0 161.0 L 160.0 159.0 L 160.0 158.0 L 159.0 157.0 L 154.0 157.0 Z M 136.0 158.0 L 135.0 157.0 L 130.0 157.0 L 129.0 158.0 L 129.0 159.0 L 127.0 161.0 L 122.0 161.0 L 121.0 162.0 L 121.0 163.0 L 119.0 165.0 L 118.0 165.0 L 117.0 166.0 L 117.0 171.0 L 118.0 172.0 L 135.0 172.0 L 136.0 171.0 Z M 100.0 118.0 L 108.0 111.0 L 108.0 106.0 L 114.0 100.0 L 119.0 100.0 L 122.0 96.0 L 127.0 96.0 L 130.0 92.0 L 159.0 92.0 L 162.0 96.0 L 167.0 96.0 L 170.0 100.0 L 175.0 100.0 L 181.0 106.0 L 181.0 111.0 L 189.0 118.0 L 189.0 139.0 L 187.0 141.0 L 174.0 141.0 L 171.0 137.0 L 158.0 137.0 L 155.0 133.0 L 150.0 133.0 L 143.0 125.0 L 138.0 125.0 L 135.0 121.0 L 122.0 121.0 L 119.0 125.0 L 114.0 125.0 L 102.0 137.0 L 100.0 135.0 Z M 58.0 17.0 L 57.0 18.0 L 57.0 23.0 L 61.0 26.0 L 61.0 35.0 L 57.0 38.0 L 57.0 43.0 L 58.0 44.0 L 59.0 44.0 L 61.0 46.0 L 61.0 47.0 L 62.0 48.0 L 63.0 48.0 L 65.0 50.0 L 65.0 51.0 L 69.0 54.0 L 69.0 59.0 L 70.0 60.0 L 71.0 60.0 L 74.0 64.0 L 78.0 64.0 L 79.0 63.0 L 80.0 63.0 L 80.0 62.0 L 81.0 61.0 L 82.0 61.0 L 84.0 59.0 L 84.0 58.0 L 80.0 55.0 L 80.0 50.0 L 79.0 50.0 L 76.0 47.0 L 76.0 46.0 L 79.0 43.0 L 80.0 43.0 L 80.0 42.0 L 81.0 41.0 L 82.0 41.0 L 84.0 39.0 L 84.0 38.0 L 80.0 35.0 L 80.0 30.0 L 79.0 29.0 L 78.0 29.0 L 76.0 27.0 L 76.0 26.0 L 75.0 25.0 L 74.0 25.0 L 72.0 23.0 L 72.0 22.0 L 68.0 19.0 L 68.0 18.0 L 67.0 17.0 Z" fill="#111111" fill-rule="evenodd"/>
</svg>
