<svg xmlns="http://www.w3.org/2000/svg" viewBox="0 0 128 128" width="128" height="128" role="img" aria-label="massoterapia">
  <title>massoterapia</title>
  <path d="M 112.43 65.51 L 107.89 62.49 L 95.78 64.00 L 89.73 57.95 L 83.68 59.46 L 77.62 56.43 L 76.11 59.46 L 51.89 60.97 L 48.86 67.03 L 23.14 67.03 L 18.59 71.57 L 18.59 91.24 L 23.14 92.76 L 23.14 110.92 L 36.76 112.43 L 36.76 94.27 L 39.78 91.24 L 42.81 97.30 L 44.32 91.24 L 92.76 91.24 L 95.78 94.27 L 95.78 112.43 L 107.89 112.43 L 109.41 92.76 L 113.95 91.24 Z M 100.32 91.24 L 103.35 91.24 L 106.38 94.27 L 106.38 107.89 L 104.86 109.41 L 98.81 107.89 L 98.81 92.76 Z M 29.19 91.24 L 33.73 92.76 L 33.73 107.89 L 32.22 109.41 L 26.16 107.89 L 26.16 94.27 Z M 21.62 82.16 L 23.14 80.65 L 109.41 80.65 L 110.92 86.70 L 109.41 88.22 L 23.14 88.22 Z M 103.35 65.51 L 106.38 65.51 L 110.92 70.05 L 110.92 74.59 L 107.89 77.62 L 101.84 77.62 L 98.81 73.08 L 98.81 70.05 Z M 62.49 65.51 L 62.49 68.54 L 57.95 71.57 L 54.92 77.62 L 23.14 77.62 L 21.62 76.11 L 21.62 73.08 L 24.65 70.05 L 50.38 70.05 L 57.95 64.00 Z M 60.97 76.11 L 62.49 73.08 L 83.68 73.08 L 85.19 70.05 L 67.03 70.05 L 65.51 68.54 L 67.03 62.49 L 88.22 62.49 L 95.78 70.05 L 95.78 74.59 L 92.76 77.62 L 62.49 77.62 Z" fill="#111111" fill-rule="evenodd"/>
  <path d="M 42.81 92.76 L 44.32 94.27 L 44.32 109.41 L 50.38 112.43 L 54.92 109.41 L 56.43 92.76 L 53.41 92.76 L 53.41 107.89 L 51.89 109.41 L 45.84 107.89 L 45.84 92.76 Z M 74.59 18.59 L 65.51 18.59 L 60.97 24.65 L 60.97 29.19 L 51.89 35.24 L 42.81 65.51 L 45.84 59.46 L 59.46 59.46 L 65.51 51.89 L 77.62 57.95 L 64.00 44.32 L 62.49 53.41 L 57.95 59.46 L 47.35 56.43 L 53.41 36.76 L 60.97 32.22 L 68.54 35.24 L 76.11 47.35 L 85.19 51.89 L 88.22 57.95 L 89.73 56.43 L 86.70 50.38 L 77.62 45.84 L 73.08 36.76 L 79.14 27.68 Z M 67.03 20.11 L 73.08 20.11 L 76.11 23.14 L 76.11 29.19 L 73.08 32.22 L 67.03 32.22 L 64.00 29.19 L 64.00 23.14 Z" fill="#20C7C9" fill-rule="evenodd"/>
</svg>
