<?xml version="1.0" encoding="UTF-8"?>
<svg xmlns="http://www.w3.org/2000/svg" viewBox="0 0 316 320" width="512" height="512" role="img" aria-label="depressao">
  <path d="M 134.0 265.0 L 129.0 270.0 L 129.0 271.0 L 131.0 273.0 L 132.0 273.0 L 133.0 274.0 L 133.0 283.0 L 134.0 284.0 L 135.0 284.0 L 137.0 286.0 L 137.0 287.0 L 138.0 288.0 L 143.0 288.0 L 144.0 287.0 L 144.0 282.0 L 143.0 281.0 L 142.0 281.0 L 140.0 279.0 L 140.0 270.0 L 139.0 269.0 L 138.0 269.0 L 137.0 268.0 L 137.0 267.0 L 135.0 265.0 Z M 250.0 221.0 L 249.0 222.0 L 249.0 227.0 L 250.0 228.0 L 255.0 228.0 L 256.0 227.0 L 256.0 222.0 L 255.0 221.0 Z M 266.0 217.0 L 265.0 218.0 L 265.0 227.0 L 266.0 228.0 L 267.0 228.0 L 272.0 223.0 L 272.0 222.0 L 267.0 217.0 Z M 238.0 217.0 L 233.0 222.0 L 233.0 223.0 L 238.0 228.0 L 239.0 228.0 L 240.0 227.0 L 240.0 218.0 L 239.0 217.0 Z M 74.0 89.0 L 73.0 90.0 L 73.0 95.0 L 74.0 96.0 L 79.0 96.0 L 80.0 95.0 L 80.0 90.0 L 79.0 89.0 Z M 70.0 49.0 L 69.0 50.0 L 69.0 51.0 L 67.0 53.0 L 66.0 53.0 L 65.0 54.0 L 65.0 63.0 L 66.0 64.0 L 72.0 64.0 L 73.0 65.0 L 73.0 79.0 L 74.0 80.0 L 79.0 80.0 L 80.0 79.0 L 80.0 74.0 L 82.0 72.0 L 83.0 72.0 L 84.0 71.0 L 84.0 70.0 L 86.0 68.0 L 87.0 68.0 L 88.0 67.0 L 88.0 54.0 L 87.0 53.0 L 86.0 53.0 L 84.0 51.0 L 84.0 50.0 L 83.0 49.0 Z M 74.0 56.0 L 79.0 56.0 L 81.0 58.0 L 81.0 63.0 L 79.0 65.0 L 73.0 65.0 L 72.0 64.0 L 72.0 58.0 Z M 238.0 33.0 L 235.0 37.0 L 230.0 37.0 L 217.0 50.0 L 217.0 55.0 L 213.0 58.0 L 213.0 87.0 L 217.0 90.0 L 217.0 95.0 L 230.0 108.0 L 235.0 108.0 L 238.0 112.0 L 267.0 112.0 L 270.0 108.0 L 275.0 108.0 L 288.0 95.0 L 288.0 90.0 L 292.0 87.0 L 292.0 58.0 L 288.0 55.0 L 288.0 50.0 L 275.0 37.0 L 270.0 37.0 L 267.0 33.0 Z M 246.0 40.0 L 259.0 40.0 L 262.0 44.0 L 267.0 44.0 L 270.0 48.0 L 275.0 48.0 L 277.0 50.0 L 277.0 55.0 L 281.0 58.0 L 281.0 63.0 L 285.0 66.0 L 285.0 79.0 L 281.0 82.0 L 281.0 87.0 L 277.0 90.0 L 277.0 95.0 L 275.0 97.0 L 270.0 97.0 L 267.0 101.0 L 262.0 101.0 L 259.0 105.0 L 246.0 105.0 L 243.0 101.0 L 238.0 101.0 L 235.0 97.0 L 230.0 97.0 L 228.0 95.0 L 228.0 90.0 L 224.0 87.0 L 224.0 82.0 L 220.0 79.0 L 220.0 66.0 L 224.0 63.0 L 224.0 58.0 L 228.0 55.0 L 228.0 50.0 L 230.0 48.0 L 235.0 48.0 L 238.0 44.0 L 243.0 44.0 Z M 266.0 69.0 L 265.0 70.0 L 265.0 75.0 L 266.0 76.0 L 271.0 76.0 L 272.0 75.0 L 272.0 70.0 L 271.0 69.0 Z M 250.0 69.0 L 249.0 70.0 L 249.0 75.0 L 250.0 76.0 L 255.0 76.0 L 256.0 75.0 L 256.0 70.0 L 255.0 69.0 Z M 234.0 69.0 L 233.0 70.0 L 233.0 75.0 L 234.0 76.0 L 239.0 76.0 L 240.0 75.0 L 240.0 70.0 L 239.0 69.0 Z M 54.0 37.0 L 37.0 58.0 L 46.0 100.0 L 52.0 90.0 L 44.0 66.0 L 54.0 48.0 L 83.0 40.0 L 109.0 66.0 L 99.0 97.0 L 61.0 102.0 L 62.0 112.0 L 109.0 110.0 L 101.0 126.0 L 105.0 163.0 L 58.0 161.0 L 41.0 178.0 L 37.0 207.0 L 54.0 232.0 L 78.0 240.0 L 103.0 232.0 L 122.0 200.0 L 137.0 218.0 L 135.0 233.0 L 106.0 233.0 L 85.0 250.0 L 77.0 287.0 L 88.0 283.0 L 96.0 250.0 L 114.0 240.0 L 125.0 242.0 L 126.0 256.0 L 136.0 255.0 L 135.0 240.0 L 158.0 260.0 L 183.0 256.0 L 195.0 240.0 L 191.0 288.0 L 204.0 242.0 L 215.0 240.0 L 233.0 250.0 L 241.0 283.0 L 251.0 288.0 L 248.0 266.0 L 284.0 251.0 L 292.0 218.0 L 267.0 253.0 L 246.0 253.0 L 220.0 231.0 L 220.0 214.0 L 242.0 192.0 L 288.0 207.0 L 280.0 142.0 L 255.0 125.0 L 226.0 133.0 L 211.0 101.0 L 201.0 107.0 L 217.0 130.0 L 215.0 153.0 L 199.0 137.0 L 162.0 133.0 L 148.0 123.0 L 148.0 106.0 L 196.0 94.0 L 180.0 87.0 L 176.0 66.0 L 159.0 49.0 L 126.0 45.0 L 114.0 53.0 L 91.0 33.0 Z M 148.0 230.0 L 150.0 228.0 L 159.0 228.0 L 161.0 230.0 L 161.0 231.0 L 162.0 232.0 L 167.0 232.0 L 168.0 231.0 L 168.0 230.0 L 170.0 228.0 L 179.0 228.0 L 181.0 230.0 L 181.0 231.0 L 182.0 232.0 L 183.0 232.0 L 185.0 234.0 L 185.0 239.0 L 183.0 241.0 L 182.0 241.0 L 181.0 242.0 L 181.0 243.0 L 179.0 245.0 L 178.0 245.0 L 177.0 246.0 L 177.0 247.0 L 175.0 249.0 L 154.0 249.0 L 152.0 247.0 L 152.0 246.0 L 151.0 245.0 L 150.0 245.0 L 148.0 243.0 Z M 215.0 192.0 L 221.0 198.0 L 221.0 199.0 L 218.0 202.0 L 217.0 202.0 L 217.0 207.0 L 215.0 209.0 L 214.0 209.0 L 213.0 210.0 L 213.0 231.0 L 211.0 233.0 L 210.0 233.0 L 207.0 230.0 L 207.0 229.0 L 202.0 229.0 L 201.0 230.0 L 201.0 231.0 L 199.0 233.0 L 194.0 233.0 L 192.0 231.0 L 192.0 218.0 L 194.0 216.0 L 195.0 216.0 L 196.0 215.0 L 196.0 214.0 L 198.0 212.0 L 199.0 212.0 L 200.0 211.0 L 200.0 210.0 L 202.0 208.0 L 203.0 208.0 L 204.0 207.0 L 204.0 206.0 L 206.0 204.0 L 207.0 204.0 L 208.0 203.0 L 208.0 198.0 L 210.0 196.0 L 211.0 196.0 L 211.0 195.0 L 214.0 192.0 Z M 218.0 172.0 L 219.0 172.0 L 221.0 174.0 L 221.0 175.0 L 222.0 176.0 L 222.0 177.0 L 221.0 178.0 L 221.0 179.0 L 219.0 181.0 L 218.0 181.0 L 216.0 179.0 L 216.0 178.0 L 215.0 177.0 L 215.0 176.0 L 216.0 175.0 L 216.0 174.0 Z M 108.0 173.0 L 109.0 172.0 L 112.0 172.0 L 113.0 173.0 L 113.0 176.0 L 112.0 177.0 L 109.0 177.0 L 108.0 176.0 Z M 74.0 164.0 L 83.0 164.0 L 86.0 168.0 L 95.0 168.0 L 97.0 171.0 L 101.0 174.0 L 101.0 183.0 L 109.0 190.0 L 109.0 211.0 L 106.0 213.0 L 95.0 225.0 L 90.0 225.0 L 87.0 229.0 L 66.0 229.0 L 64.0 226.0 L 48.0 211.0 L 48.0 186.0 L 52.0 183.0 L 52.0 178.0 L 55.0 176.0 L 62.0 168.0 L 71.0 168.0 Z M 78.0 213.0 L 73.0 218.0 L 73.0 219.0 L 78.0 224.0 L 79.0 224.0 L 84.0 219.0 L 84.0 218.0 L 79.0 213.0 Z M 83.0 173.0 L 78.0 173.0 L 77.0 174.0 L 77.0 175.0 L 75.0 177.0 L 74.0 177.0 L 73.0 178.0 L 73.0 203.0 L 74.0 204.0 L 75.0 204.0 L 76.0 205.0 L 76.0 206.0 L 78.0 208.0 L 79.0 208.0 L 81.0 206.0 L 81.0 205.0 L 82.0 204.0 L 83.0 204.0 L 84.0 203.0 L 84.0 174.0 Z M 234.0 136.0 L 259.0 136.0 L 262.0 140.0 L 267.0 140.0 L 269.0 143.0 L 273.0 146.0 L 273.0 151.0 L 277.0 154.0 L 277.0 179.0 L 274.0 181.0 L 271.0 185.0 L 262.0 185.0 L 259.0 181.0 L 247.0 181.0 L 245.0 182.0 L 243.0 185.0 L 234.0 185.0 L 231.0 189.0 L 226.0 189.0 L 224.0 187.0 L 224.0 186.0 L 228.0 183.0 L 228.0 166.0 L 226.0 165.0 L 224.0 162.0 L 220.0 159.0 L 220.0 158.0 L 224.0 155.0 L 224.0 146.0 L 227.0 144.0 Z M 243.0 141.0 L 242.0 142.0 L 241.0 142.0 L 241.0 143.0 L 239.0 145.0 L 238.0 145.0 L 235.0 149.0 L 234.0 149.0 L 233.0 150.0 L 233.0 155.0 L 234.0 156.0 L 235.0 156.0 L 238.0 160.0 L 240.0 160.0 L 240.0 158.0 L 244.0 155.0 L 244.0 150.0 L 246.0 148.0 L 247.0 148.0 L 249.0 150.0 L 249.0 151.0 L 250.0 152.0 L 249.0 155.0 L 247.0 157.0 L 246.0 157.0 L 243.0 161.0 L 242.0 161.0 L 241.0 162.0 L 241.0 171.0 L 242.0 172.0 L 243.0 172.0 L 245.0 174.0 L 245.0 175.0 L 246.0 175.0 L 247.0 176.0 L 251.0 176.0 L 252.0 175.0 L 252.0 166.0 L 254.0 164.0 L 255.0 164.0 L 258.0 160.0 L 259.0 160.0 L 260.0 159.0 L 260.0 150.0 L 259.0 149.0 L 258.0 149.0 L 256.0 147.0 L 256.0 146.0 L 252.0 143.0 L 252.0 142.0 L 251.0 142.0 L 250.0 141.0 Z M 146.0 132.0 L 150.0 136.0 L 155.0 136.0 L 158.0 140.0 L 163.0 140.0 L 166.0 144.0 L 191.0 144.0 L 194.0 148.0 L 199.0 148.0 L 205.0 154.0 L 205.0 191.0 L 197.0 198.0 L 197.0 203.0 L 187.0 213.0 L 182.0 213.0 L 175.0 221.0 L 154.0 221.0 L 147.0 213.0 L 142.0 213.0 L 136.0 207.0 L 136.0 202.0 L 128.0 195.0 L 128.0 190.0 L 124.0 187.0 L 124.0 154.0 L 130.0 148.0 L 135.0 148.0 L 140.0 143.0 L 140.0 138.0 Z M 157.0 202.0 L 157.0 207.0 L 158.0 208.0 L 159.0 208.0 L 161.0 210.0 L 161.0 211.0 L 162.0 212.0 L 167.0 212.0 L 168.0 211.0 L 168.0 210.0 L 170.0 208.0 L 171.0 208.0 L 172.0 207.0 L 172.0 202.0 L 171.0 201.0 L 158.0 201.0 Z M 157.0 186.0 L 157.0 191.0 L 158.0 192.0 L 159.0 192.0 L 161.0 194.0 L 161.0 195.0 L 162.0 195.0 L 163.0 196.0 L 166.0 196.0 L 167.0 195.0 L 168.0 195.0 L 168.0 194.0 L 170.0 192.0 L 171.0 192.0 L 172.0 191.0 L 172.0 186.0 L 171.0 185.0 L 158.0 185.0 Z M 178.0 169.0 L 177.0 170.0 L 177.0 171.0 L 175.0 173.0 L 174.0 173.0 L 173.0 174.0 L 173.0 179.0 L 174.0 180.0 L 175.0 180.0 L 177.0 182.0 L 177.0 183.0 L 178.0 184.0 L 183.0 184.0 L 184.0 185.0 L 184.0 186.0 L 186.0 188.0 L 187.0 188.0 L 192.0 183.0 L 192.0 182.0 L 190.0 180.0 L 189.0 180.0 L 188.0 179.0 L 188.0 174.0 L 189.0 173.0 L 190.0 173.0 L 192.0 171.0 L 192.0 170.0 L 191.0 169.0 Z M 142.0 165.0 L 137.0 170.0 L 137.0 171.0 L 139.0 173.0 L 140.0 173.0 L 141.0 174.0 L 141.0 179.0 L 140.0 180.0 L 139.0 180.0 L 137.0 182.0 L 137.0 183.0 L 142.0 188.0 L 143.0 188.0 L 145.0 186.0 L 145.0 185.0 L 146.0 184.0 L 151.0 184.0 L 152.0 183.0 L 152.0 182.0 L 154.0 180.0 L 155.0 180.0 L 156.0 179.0 L 156.0 174.0 L 155.0 173.0 L 154.0 173.0 L 152.0 171.0 L 152.0 170.0 L 151.0 169.0 L 146.0 169.0 L 145.0 168.0 L 145.0 167.0 L 143.0 165.0 Z M 135.0 108.0 L 137.0 110.0 L 137.0 131.0 L 135.0 133.0 L 134.0 133.0 L 133.0 134.0 L 133.0 135.0 L 131.0 137.0 L 130.0 137.0 L 129.0 138.0 L 129.0 139.0 L 127.0 141.0 L 126.0 141.0 L 125.0 142.0 L 125.0 143.0 L 123.0 145.0 L 122.0 145.0 L 119.0 149.0 L 118.0 149.0 L 118.0 150.0 L 117.0 151.0 L 117.0 155.0 L 115.0 157.0 L 114.0 157.0 L 112.0 155.0 L 112.0 146.0 L 108.0 143.0 L 108.0 134.0 L 112.0 131.0 L 112.0 122.0 L 114.0 120.0 L 115.0 120.0 L 116.0 119.0 L 116.0 118.0 L 118.0 116.0 L 119.0 116.0 L 122.0 112.0 L 127.0 112.0 L 130.0 108.0 Z M 169.0 70.0 L 169.0 87.0 L 167.0 89.0 L 162.0 89.0 L 159.0 93.0 L 150.0 93.0 L 143.0 101.0 L 122.0 101.0 L 119.0 105.0 L 114.0 105.0 L 112.0 102.0 L 108.0 99.0 L 108.0 98.0 L 112.0 95.0 L 112.0 90.0 L 116.0 87.0 L 116.0 62.0 L 118.0 60.0 L 123.0 60.0 L 126.0 56.0 L 135.0 56.0 L 138.0 52.0 L 143.0 52.0 L 146.0 56.0 L 155.0 56.0 L 157.0 59.0 L 159.0 60.0 L 161.0 63.0 Z M 143.0 61.0 L 138.0 61.0 L 137.0 62.0 L 137.0 63.0 L 135.0 65.0 L 134.0 65.0 L 133.0 66.0 L 133.0 91.0 L 134.0 92.0 L 135.0 92.0 L 136.0 93.0 L 136.0 94.0 L 138.0 96.0 L 139.0 96.0 L 141.0 94.0 L 141.0 93.0 L 142.0 92.0 L 143.0 92.0 L 144.0 91.0 L 144.0 62.0 Z" fill="#111111" fill-rule="evenodd"/>
</svg>
