<?xml version="1.0" encoding="UTF-8"?>
<svg xmlns="http://www.w3.org/2000/svg" viewBox="0 0 288 276" width="512" height="512" role="img" aria-label="emagrecimento">
  <path d="M 150.0 149.0 L 149.0 150.0 L 149.0 159.0 L 150.0 160.0 L 155.0 160.0 L 156.0 159.0 L 156.0 150.0 L 155.0 149.0 Z M 217.0 130.0 L 217.0 135.0 L 219.0 136.0 L 221.0 138.0 L 221.0 139.0 L 223.0 140.0 L 225.0 142.0 L 225.0 143.0 L 229.0 146.0 L 230.0 148.0 L 235.0 148.0 L 236.0 147.0 L 236.0 142.0 L 235.0 142.0 L 232.0 139.0 L 232.0 138.0 L 234.0 136.0 L 263.0 136.0 L 264.0 135.0 L 264.0 130.0 L 263.0 129.0 L 234.0 129.0 L 232.0 127.0 L 232.0 126.0 L 235.0 123.0 L 236.0 123.0 L 236.0 118.0 L 235.0 117.0 L 230.0 117.0 L 229.0 119.0 L 227.0 121.0 L 226.0 121.0 L 225.0 123.0 L 223.0 125.0 L 222.0 125.0 L 219.0 129.0 Z M 88.0 130.0 L 86.0 129.0 L 84.0 127.0 L 84.0 126.0 L 82.0 125.0 L 80.0 123.0 L 80.0 122.0 L 76.0 119.0 L 75.0 117.0 L 70.0 117.0 L 69.0 118.0 L 69.0 123.0 L 70.0 123.0 L 73.0 126.0 L 73.0 127.0 L 71.0 129.0 L 42.0 129.0 L 41.0 130.0 L 41.0 135.0 L 42.0 136.0 L 71.0 136.0 L 73.0 138.0 L 73.0 139.0 L 70.0 142.0 L 69.0 142.0 L 69.0 147.0 L 70.0 148.0 L 75.0 148.0 L 76.0 146.0 L 78.0 144.0 L 79.0 144.0 L 80.0 142.0 L 82.0 140.0 L 83.0 140.0 L 86.0 136.0 L 88.0 135.0 Z M 78.0 37.0 L 77.0 51.0 L 101.0 106.0 L 101.0 135.0 L 73.0 198.0 L 73.0 259.0 L 82.0 252.0 L 135.0 252.0 L 143.0 260.0 L 144.0 246.0 L 159.0 244.0 L 162.0 260.0 L 170.0 252.0 L 223.0 252.0 L 231.0 260.0 L 232.0 198.0 L 203.0 133.0 L 197.0 147.0 L 207.0 173.0 L 133.0 187.0 L 187.0 188.0 L 215.0 180.0 L 225.0 210.0 L 223.0 241.0 L 182.0 245.0 L 167.0 233.0 L 138.0 233.0 L 123.0 245.0 L 80.0 239.0 L 88.0 182.0 L 124.0 183.0 L 96.0 171.0 L 108.0 147.0 L 108.0 94.0 L 183.0 88.0 L 197.0 94.0 L 197.0 119.0 L 203.0 120.0 L 228.0 38.0 L 221.0 38.0 L 203.0 85.0 L 175.0 77.0 L 102.0 85.0 Z" fill="#111111" fill-rule="evenodd"/>
</svg>
