<?xml version="1.0" encoding="UTF-8"?>
<svg xmlns="http://www.w3.org/2000/svg" viewBox="0 0 308 312" width="512" height="512" role="img" aria-label="ansiedade">
  <path d="M 255.0 121.0 L 254.0 121.0 L 252.0 124.0 L 249.0 126.0 L 249.0 131.0 L 246.0 133.0 L 245.0 135.0 L 245.0 139.0 L 241.0 142.0 L 241.0 147.0 L 237.0 150.0 L 238.0 152.0 L 251.0 152.0 L 253.0 154.0 L 253.0 155.0 L 250.0 158.0 L 249.0 158.0 L 249.0 163.0 L 246.0 165.0 L 243.0 169.0 L 241.0 170.0 L 241.0 175.0 L 243.0 176.0 L 246.0 180.0 L 247.0 180.0 L 249.0 177.0 L 252.0 175.0 L 252.0 170.0 L 256.0 167.0 L 256.0 162.0 L 259.0 160.0 L 262.0 156.0 L 264.0 155.0 L 264.0 150.0 L 268.0 147.0 L 267.0 145.0 L 254.0 145.0 L 252.0 143.0 L 252.0 142.0 L 255.0 139.0 L 256.0 139.0 L 256.0 134.0 L 259.0 132.0 L 260.0 130.0 L 260.0 126.0 L 258.0 125.0 Z M 213.0 106.0 L 213.0 127.0 L 222.0 136.0 L 239.0 136.0 L 240.0 130.0 L 230.0 129.0 L 220.0 119.0 L 220.0 114.0 L 230.0 104.0 L 235.0 104.0 L 246.0 116.0 L 251.0 116.0 L 252.0 106.0 L 240.0 95.0 L 240.0 90.0 L 247.0 88.0 L 250.0 84.0 L 255.0 84.0 L 258.0 88.0 L 263.0 88.0 L 265.0 95.0 L 269.0 98.0 L 269.0 103.0 L 265.0 106.0 L 265.0 111.0 L 261.0 115.0 L 267.0 120.0 L 278.0 108.0 L 285.0 114.0 L 285.0 119.0 L 275.0 129.0 L 266.0 129.0 L 265.0 135.0 L 283.0 136.0 L 292.0 127.0 L 292.0 106.0 L 283.0 97.0 L 278.0 97.0 L 276.0 90.0 L 263.0 77.0 L 242.0 77.0 L 229.0 90.0 L 229.0 95.0 L 222.0 97.0 Z M 91.0 49.0 L 82.0 49.0 L 81.0 50.0 L 81.0 51.0 L 79.0 53.0 L 78.0 53.0 L 77.0 54.0 L 77.0 55.0 L 75.0 57.0 L 74.0 57.0 L 73.0 58.0 L 73.0 59.0 L 71.0 61.0 L 70.0 61.0 L 69.0 62.0 L 69.0 71.0 L 70.0 72.0 L 75.0 72.0 L 76.0 71.0 L 76.0 70.0 L 78.0 68.0 L 79.0 68.0 L 80.0 67.0 L 80.0 62.0 L 82.0 60.0 L 87.0 60.0 L 88.0 59.0 L 88.0 58.0 L 90.0 56.0 L 91.0 56.0 L 92.0 55.0 L 92.0 50.0 Z M 75.0 37.0 L 66.0 37.0 L 65.0 38.0 L 65.0 39.0 L 63.0 41.0 L 62.0 41.0 L 61.0 42.0 L 61.0 43.0 L 59.0 45.0 L 58.0 45.0 L 57.0 46.0 L 57.0 55.0 L 58.0 56.0 L 63.0 56.0 L 64.0 55.0 L 64.0 54.0 L 66.0 52.0 L 67.0 52.0 L 68.0 51.0 L 68.0 50.0 L 70.0 48.0 L 71.0 48.0 L 72.0 47.0 L 72.0 46.0 L 74.0 44.0 L 75.0 44.0 L 76.0 43.0 L 76.0 38.0 Z M 130.0 37.0 L 61.0 106.0 L 53.0 122.0 L 53.0 231.0 L 61.0 247.0 L 78.0 264.0 L 94.0 272.0 L 131.0 272.0 L 147.0 264.0 L 164.0 247.0 L 172.0 218.0 L 179.0 212.0 L 205.0 259.0 L 218.0 272.0 L 267.0 272.0 L 275.0 268.0 L 280.0 259.0 L 276.0 234.0 L 267.0 229.0 L 246.0 229.0 L 240.0 223.0 L 212.0 162.0 L 196.0 151.0 L 196.0 138.0 L 204.0 119.0 L 204.0 90.0 L 200.0 87.0 L 200.0 62.0 L 196.0 54.0 L 171.0 33.0 L 138.0 33.0 Z M 216.0 259.0 L 216.0 254.0 L 218.0 252.0 L 219.0 252.0 L 222.0 248.0 L 227.0 248.0 L 228.0 246.0 L 230.0 244.0 L 231.0 244.0 L 234.0 240.0 L 239.0 240.0 L 242.0 236.0 L 263.0 236.0 L 265.0 238.0 L 265.0 239.0 L 267.0 240.0 L 269.0 242.0 L 269.0 243.0 L 273.0 246.0 L 273.0 255.0 L 271.0 257.0 L 270.0 257.0 L 269.0 259.0 L 267.0 261.0 L 266.0 261.0 L 263.0 265.0 L 222.0 265.0 L 220.0 263.0 L 220.0 262.0 Z M 139.0 172.0 L 141.0 174.0 L 141.0 175.0 L 138.0 178.0 L 137.0 178.0 L 137.0 179.0 L 135.0 181.0 L 134.0 181.0 L 133.0 182.0 L 133.0 183.0 L 131.0 185.0 L 130.0 185.0 L 130.0 186.0 L 127.0 189.0 L 126.0 189.0 L 124.0 187.0 L 124.0 174.0 L 126.0 172.0 Z M 233.0 226.0 L 233.0 231.0 L 227.0 237.0 L 222.0 237.0 L 215.0 245.0 L 210.0 245.0 L 204.0 239.0 L 200.0 226.0 L 192.0 219.0 L 188.0 206.0 L 180.0 199.0 L 176.0 186.0 L 170.0 181.0 L 165.0 186.0 L 165.0 191.0 L 169.0 194.0 L 169.0 211.0 L 161.0 222.0 L 161.0 231.0 L 157.0 234.0 L 157.0 239.0 L 139.0 257.0 L 134.0 257.0 L 131.0 261.0 L 122.0 261.0 L 119.0 265.0 L 106.0 265.0 L 103.0 261.0 L 94.0 261.0 L 91.0 257.0 L 78.0 253.0 L 72.0 247.0 L 72.0 242.0 L 64.0 235.0 L 60.0 206.0 L 62.0 204.0 L 115.0 204.0 L 117.0 215.0 L 123.0 216.0 L 124.0 202.0 L 154.0 172.0 L 159.0 172.0 L 162.0 164.0 L 179.0 164.0 L 182.0 160.0 L 195.0 160.0 L 205.0 170.0 L 205.0 175.0 L 209.0 178.0 L 209.0 183.0 L 213.0 186.0 L 213.0 191.0 L 217.0 194.0 L 217.0 199.0 L 221.0 202.0 L 221.0 207.0 Z M 120.0 110.0 L 122.0 108.0 L 131.0 108.0 L 133.0 110.0 L 133.0 111.0 L 137.0 114.0 L 137.0 115.0 L 138.0 116.0 L 151.0 116.0 L 152.0 115.0 L 152.0 114.0 L 154.0 112.0 L 155.0 112.0 L 158.0 108.0 L 167.0 108.0 L 169.0 110.0 L 169.0 111.0 L 166.0 114.0 L 165.0 114.0 L 165.0 131.0 L 163.0 133.0 L 162.0 133.0 L 159.0 130.0 L 159.0 129.0 L 134.0 129.0 L 132.0 127.0 L 132.0 126.0 L 131.0 125.0 L 130.0 125.0 L 128.0 123.0 L 128.0 122.0 L 124.0 119.0 L 124.0 114.0 L 123.0 114.0 L 120.0 111.0 Z M 191.0 88.0 L 193.0 91.0 L 197.0 94.0 L 197.0 111.0 L 193.0 114.0 L 193.0 123.0 L 189.0 126.0 L 189.0 143.0 L 186.0 145.0 L 185.0 147.0 L 182.0 149.0 L 175.0 157.0 L 162.0 157.0 L 160.0 155.0 L 160.0 142.0 L 162.0 140.0 L 167.0 140.0 L 168.0 138.0 L 172.0 135.0 L 172.0 130.0 L 176.0 127.0 L 176.0 102.0 L 172.0 99.0 L 172.0 94.0 L 175.0 92.0 L 178.0 88.0 Z M 91.0 88.0 L 93.0 90.0 L 93.0 95.0 L 117.0 118.0 L 117.0 123.0 L 121.0 126.0 L 121.0 131.0 L 126.0 136.0 L 151.0 136.0 L 153.0 138.0 L 153.0 163.0 L 151.0 165.0 L 122.0 165.0 L 102.0 145.0 L 97.0 151.0 L 117.0 170.0 L 117.0 195.0 L 115.0 197.0 L 62.0 197.0 L 60.0 195.0 L 60.0 134.0 L 64.0 131.0 L 64.0 122.0 L 68.0 119.0 L 68.0 114.0 L 72.0 111.0 L 72.0 106.0 Z M 100.0 78.0 L 110.0 68.0 L 127.0 68.0 L 134.0 76.0 L 151.0 76.0 L 159.0 68.0 L 165.0 74.0 L 165.0 95.0 L 162.0 97.0 L 150.0 85.0 L 145.0 91.0 L 149.0 94.0 L 149.0 99.0 L 153.0 103.0 L 147.0 109.0 L 142.0 109.0 L 135.0 101.0 L 130.0 101.0 L 128.0 99.0 L 128.0 94.0 L 127.0 93.0 L 118.0 93.0 L 117.0 94.0 L 117.0 99.0 L 115.0 101.0 L 111.0 97.0 L 106.0 97.0 L 104.0 95.0 L 104.0 90.0 L 100.0 87.0 Z M 120.0 58.0 L 124.0 55.0 L 124.0 54.0 L 127.0 52.0 L 130.0 48.0 L 135.0 48.0 L 138.0 44.0 L 143.0 44.0 L 146.0 40.0 L 163.0 40.0 L 166.0 44.0 L 171.0 44.0 L 174.0 48.0 L 179.0 48.0 L 181.0 51.0 L 185.0 54.0 L 185.0 59.0 L 189.0 62.0 L 189.0 67.0 L 193.0 70.0 L 193.0 79.0 L 191.0 81.0 L 174.0 81.0 L 172.0 79.0 L 172.0 70.0 L 170.0 69.0 L 163.0 61.0 L 154.0 61.0 L 151.0 65.0 L 146.0 65.0 L 143.0 69.0 L 138.0 69.0 L 131.0 61.0 L 122.0 61.0 Z" fill="#111111" fill-rule="evenodd"/>
</svg>
